<?xml version="1.0" standalone="no"?><!DOCTYPE svg PUBLIC "-//W3C//DTD SVG 1.1//EN" "http://www.w3.org/Graphics/SVG/1.1/DTD/svg11.dtd" ><svg xmlns="http://www.w3.org/2000/svg"><metadata></metadata><defs><font id="1.000;FBRC;Akrobat-SemiBold" horiz-adv-x="808"><font-face font-family="Akrobat SemiBold" font-weight="600" font-stretch="normal" units-per-em="1000" panose-1="0 0 7 0 0 0 0 0 0 0" ascent="1000" descent="-200" x-height="0" bbox="-17 -202 785 888" underline-thickness="50" underline-position="-75" unicode-range="U+0020-0491" /><missing-glyph horiz-adv-x="500" d="M410 800 l0 -1000 l-317 0 l0 1000 l317 0 ZM333 733 l-165 0 l0 -33 l65 0 l0 -37 l-66 0 l0 -33 l166 0 l0 33 l-66 0 l0 37 l66 0 l0 33 ZM267 604 l-100 0 l0 -104 l166 0 l0 34 l-66 0 l0 70 ZM233 570 l0 -36 l-33 0 l0 36 l33 0 ZM333 473 l-166 0 l0 -33 l66 0 l0 -37 l-66 0 l0 -33 l100 0 l0 70 l66 0 l0 33 ZM333 413 l-33 0 l0 -66 l-133 0 l0 -34 l166 0 l0 100 ZM333 291 l-100 0 l0 -56 l34 0 l0 23 l33 0 l0 -47 l-100 0 l0 80 l-33 0 l0 -113 l166 0 l0 113 ZM333 118 l-166 0 l0 -113 l166 0 l0 113 ZM300 85 l0 -47 l-100 0 l0 47 l100 0 ZM333 -18 l-166 0 l0 -33 l70 0 l-70 -47 l0 -33 l166 0 l0 33 l-102 0 l70 47 l32 0 l0 33 Z" /><glyph glyph-name="space" unicode=" " d="" /><glyph glyph-name="exclam" unicode="!" d="M78 156 l0 544 l79 0 l0 -544 l-79 0 ZM118 -11 q-25 0 -39.5 15 q-14.5 15 -14.5 40 q0 24 14.5 39 q14.5 15 39.5 15 q24 0 39 -15 q15 -15 15 -39 q0 -25 -15 -40 q-15 -15 -39 -15 Z" /><glyph glyph-name="quotedbl" unicode="&quot;" d="M39 700 l82 0 l-52 -222 l-51 0 l21 222 ZM154 700 l82 0 l-52 -222 l-51 0 l21 222 Z" /><glyph glyph-name="numbersign" unicode="#" d="M91 0 l42 184 l-121 0 l15 62 l120 0 l46 198 l-122 0 l14 61 l122 0 l44 195 l72 0 l-45 -195 l107 0 l45 195 l73 0 l-45 -195 l122 0 l-14 -61 l-122 0 l-46 -198 l123 0 l-15 -62 l-121 0 l-42 -184 l-73 0 l42 184 l-107 0 l-42 -184 l-72 0 ZM219 246 l107 0 l45 198 l-107 0 l-45 -198 Z" /><glyph glyph-name="dollar" unicode="$" d="M425 178 q0 -73 -45.5 -127 q-45.5 -54 -124.5 -63 l0 -73 l-63 0 l0 75 q-75 11 -118.5 63 q-43.5 52 -44.5 133 l83 0 q1 -58 32 -89 q31 -31 84 -31 q55 0 84 31 q29 31 29 82 q0 41 -31 74.5 q-31 33.5 -75.5 59 q-44.5 25.5 -88.5 53.5 q-44 28 -75 72 q-31 44 -31 101 q0 67 41.5 114 q41.5 47 110.5 57 l0 75 l63 0 l0 -74 q73 -8 115.5 -59 q42.5 -51 45.5 -131 l-83 0 q-2 56 -30 84.5 q-28 28.5 -75 28.5 q-49 0 -77 -26 q-28 -26 -28 -70 q0 -35 22.5 -64 q22.5 -29 56 -48 q33.5 -19 72.5 -43.5 q39 -24.5 72.5 -49 q33.5 -24.5 56 -65 q22.5 -40.5 22.5 -90.5 Z" /><glyph glyph-name="percent" unicode="%" d="M112 391 q-45 0 -72.5 28.5 q-27.5 28.5 -27.5 80.5 l0 100 q0 52 27.5 81 q27.5 29 72.5 29 q44 0 71.5 -29 q27.5 -29 27.5 -81 l0 -100 q0 -52 -27.5 -80.5 q-27.5 -28.5 -71.5 -28.5 ZM23 0 l463 700 l66 0 l-463 -700 l-66 0 ZM112 444 q42 0 42 55 l0 102 q0 56 -42 56 q-43 0 -43 -56 l0 -102 q0 -55 43 -55 ZM460 -9 q-45 0 -72.5 28.5 q-27.5 28.5 -27.5 80.5 l0 100 q0 52 27.5 81 q27.5 29 72.5 29 q44 0 71.5 -29 q27.5 -29 27.5 -81 l0 -100 q0 -52 -27.5 -80.5 q-27.5 -28.5 -71.5 -28.5 ZM460 44 q42 0 42 55 l0 102 q0 56 -42 56 q-43 0 -43 -56 l0 -102 q0 -55 43 -55 Z" /><glyph glyph-name="ampersand" unicode="&amp;" d="M548 0 l-89 0 q-16 25 -50 73 q-74 -86 -169 -86 q-71 0 -119 46 q-48 46 -48 126 q0 65 31.5 116 q31.5 51 87.5 103 q-75 120 -75 190 q0 61 38 103 q38 42 108 42 q73 0 110 -44.5 q37 -44.5 35 -107.5 q-1 -55 -31.5 -100 q-30.5 -45 -85.5 -96 q14 -20 113 -158 q17 38 30 77 l83 0 q-27 -85 -63 -147 q57 -81 94 -137 ZM194 566 q0 -45 55 -136 q40 37 61.5 67.5 q21.5 30.5 21.5 64.5 q0 32 -18.5 55 q-18.5 23 -50.5 23 q-32 0 -50.5 -20.5 q-18.5 -20.5 -18.5 -53.5 ZM246 63 q62 0 116 75 q-106 146 -126 175 q-80 -78 -80 -147 q0 -46 25.5 -74.5 q25.5 -28.5 64.5 -28.5 Z" /><glyph glyph-name="quotesingle" unicode="&#39;" d="M39 700 l82 0 l-52 -222 l-51 0 l21 222 Z" /><glyph glyph-name="parenleft" unicode="(" d="M235 -121 q-74 3 -118 50.5 q-44 47.5 -44 125.5 l0 590 q0 77 44 124.5 q44 47.5 118 50.5 l0 -74 q-38 -2 -60.5 -28.5 q-22.5 -26.5 -22.5 -69.5 l0 -596 q0 -44 22 -70 q22 -26 61 -29 l0 -74 Z" /><glyph glyph-name="parenright" unicode=")" d="M49 -121 l0 74 q39 3 61 29 q22 26 22 70 l0 596 q0 43 -22.5 69.5 q-22.5 26.5 -60.5 28.5 l0 74 q74 -3 118 -50.5 q44 -47.5 44 -124.5 l0 -590 q0 -78 -44 -125.5 q-44 -47.5 -118 -50.5 Z" /><glyph glyph-name="asterisk" unicode="*" d="M99 488 l-45 32 l50 70 l-80 26 l16 53 l82 -27 l0 85 l55 0 l0 -85 l81 26 l17 -52 l-82 -26 l51 -70 l-45 -33 l-50 70 l-50 -69 Z" /><glyph glyph-name="plus" unicode="+" d="M407 346 l0 -73 l-144 0 l0 -148 l-74 0 l0 148 l-144 0 l0 73 l144 0 l0 148 l74 0 l0 -148 l144 0 Z" /><glyph glyph-name="comma" unicode="," d="M49 89 l82 0 l-52 -222 l-51 0 l21 222 Z" /><glyph glyph-name="hyphen" unicode="-" d="M42 222 l0 71 l243 0 l0 -71 l-243 0 Z" /><glyph glyph-name="period" unicode="." d="M133 4 q-15 -15 -39 -15 q-24 0 -39 15 q-15 15 -15 40 q0 24 15 39 q15 15 39 15 q24 0 39 -15 q15 -15 15 -39 q0 -25 -15 -40 Z" /><glyph glyph-name="slash" unicode="/" d="M333 812 l74 0 l-325 -929 l-73 0 l324 929 Z" /><glyph glyph-name="zero" unicode="0" d="M361.5 41.5 q-48.5 -51.5 -129.5 -51.5 q-81 0 -129.5 51.5 q-48.5 51.5 -48.5 137.5 l0 341 q0 87 48.5 138.5 q48.5 51.5 129.5 51.5 q81 0 129.5 -51.5 q48.5 -51.5 48.5 -138.5 l0 -341 q0 -86 -48.5 -137.5 ZM157.5 95 q26.5 -30 74.5 -30 q48 0 74.5 30 q26.5 30 26.5 84 l0 341 q0 55 -26.5 85 q-26.5 30 -74.5 30 q-48 0 -74.5 -30 q-26.5 -30 -26.5 -85 l0 -341 q0 -54 26.5 -84 Z" /><glyph glyph-name="one" unicode="1" d="M148 700 l66 0 l0 -696 l-78 0 l0 590 l-111 -84 l0 93 l123 97 Z" /><glyph glyph-name="two" unicode="2" d="M30 0 l0 59 q0 65 27.5 124 q27.5 59 66 103.5 q38.5 44.5 77.5 85.5 q39 41 66.5 85.5 q27.5 44.5 27.5 87.5 q0 40 -24.5 66 q-24.5 26 -67.5 26 q-42 0 -66 -27.5 q-24 -27.5 -25 -80.5 l-77 0 q5 84 49.5 133 q44.5 49 118.5 49 q79 0 125 -47.5 q46 -47.5 46 -116.5 q0 -46 -19.5 -90.5 q-19.5 -44.5 -48.5 -79 q-29 -34.5 -63.5 -73 q-34.5 -38.5 -63.5 -72 q-29 -33.5 -48.5 -75.5 q-19.5 -42 -19.5 -83 l269 0 l0 -74 l-350 0 Z" /><glyph glyph-name="three" unicode="3" d="M207 416 q80 -1 121.5 -49.5 q41.5 -48.5 41.5 -128.5 l0 -48 q0 -97 -46 -149 q-46 -52 -130 -52 q-80 0 -128.5 51 q-48.5 51 -49.5 148 l79 0 q5 -122 98 -122 q99 0 99 125 l0 46 q0 114 -109 114 l-63 0 l0 59 l135 218 l-215 0 l0 73 l314 0 l0 -55 l-147 -230 Z" /><glyph glyph-name="four" unicode="4" d="M418 254 l0 -74 l-82 0 l0 -180 l-77 0 l0 180 l-249 0 l0 43 l153 477 l81 0 l-145 -446 l161 0 l4 252 l72 0 l0 -252 l82 0 Z" /><glyph glyph-name="five" unicode="5" d="M226 471 q72 0 113.5 -51 q41.5 -51 41.5 -143 l0 -71 q0 -108 -43 -162.5 q-43 -54.5 -122 -54.5 q-76 0 -121 48 q-45 48 -48 135 l79 0 q4 -106 90 -106 q43 0 64 32 q21 32 21 108 l0 71 q0 62 -20.5 90.5 q-20.5 28.5 -64.5 28.5 q-70 0 -86 -71 l-77 0 l0 375 l307 0 l0 -72 l-228 0 l0 -190 q40 33 94 33 Z" /><glyph glyph-name="six" unicode="6" d="M236 460 q68 0 115 -49 q47 -49 47 -125 l0 -116 q0 -82 -48.5 -131.5 q-48.5 -49.5 -122.5 -49.5 q-75 0 -124 49.5 q-49 49.5 -49 131.5 l0 364 q0 79 48 128 q48 49 123 49 q71 0 118 -47.5 q47 -47.5 51 -125.5 l-79 0 q-3 45 -28 70.5 q-25 25.5 -62 25.5 q-41 0 -66.5 -26 q-25.5 -26 -25.5 -73 l0 -117 q40 42 103 42 ZM319 170 l0 114 q0 47 -27 74 q-27 27 -69 27 q-39 0 -64.5 -27.5 q-25.5 -27.5 -25.5 -75.5 l0 -112 q0 -49 26.5 -76.5 q26.5 -27.5 67.5 -27.5 q40 0 66 27.5 q26 27.5 26 76.5 Z" /><glyph glyph-name="seven" unicode="7" d="M-2 701 l336 0 l0 -50 l-191 -653 l-83 0 l184 628 l-246 0 l0 75 Z" /><glyph glyph-name="eight" unicode="8" d="M329 363 q40 -21 62 -63 q22 -42 22 -96 l0 -20 q0 -91 -49 -143 q-49 -52 -134 -52 q-86 0 -135 52 q-49 52 -49 143 l0 20 q0 54 22 96 q22 42 62 63 q-72 50 -72 150 l0 15 q0 85 46 134 q46 49 126 49 q79 0 125 -49 q46 -49 46 -134 l0 -15 q0 -99 -72 -150 ZM137 526 l0 -14 q0 -55 24.5 -84.5 q24.5 -29.5 68.5 -29.5 q44 0 68.5 29.5 q24.5 29.5 24.5 84.5 l0 14 q0 52 -24.5 80 q-24.5 28 -68.5 28 q-44 0 -68.5 -28 q-24.5 -28 -24.5 -80 ZM334 184 l0 20 q0 57 -27 88 q-27 31 -77 31 q-50 0 -77.5 -31 q-27.5 -31 -27.5 -88 l0 -20 q0 -56 27.5 -87 q27.5 -31 77.5 -31 q50 0 77 31 q27 31 27 87 Z" /><glyph glyph-name="nine" unicode="9" d="M211 711 q75 0 124 -49.5 q49 -49.5 49 -131.5 l0 -364 q0 -79 -48 -128 q-48 -49 -123 -49 q-71 0 -118 47.5 q-47 47.5 -51 125.5 l79 0 q3 -45 28 -70.5 q25 -25.5 62 -25.5 q41 0 66.5 26 q25.5 26 25.5 73 l0 117 q-40 -42 -103 -42 q-68 0 -115 49 q-47 49 -47 125 l0 116 q0 82 48.5 131.5 q48.5 49.5 122.5 49.5 ZM215 315 q39 0 64.5 27.5 q25.5 27.5 25.5 75.5 l0 112 q0 49 -26.5 76.5 q-26.5 27.5 -67.5 27.5 q-40 0 -66 -27.5 q-26 -27.5 -26 -76.5 l0 -114 q0 -47 27 -74 q27 -27 69 -27 Z" /><glyph glyph-name="colon" unicode=":" d="M131 349 q-15 -15 -39 -15 q-24 0 -39 15 q-15 15 -15 40 q0 24 15 39 q15 15 39 15 q24 0 39 -15 q15 -15 15 -39 q0 -25 -15 -40 ZM131 4 q-15 -15 -39 -15 q-24 0 -39 15 q-15 15 -15 40 q0 24 15 39 q15 15 39 15 q24 0 39 -15 q15 -15 15 -39 q0 -25 -15 -40 Z" /><glyph glyph-name="semicolon" unicode=";" d="M87 335 q-25 0 -39.5 15 q-14.5 15 -14.5 39 q0 24 14.5 39 q14.5 15 39.5 15 q24 0 39 -15 q15 -15 15 -39 q0 -24 -15 -39 q-15 -15 -39 -15 ZM49 89 l82 0 l-52 -222 l-51 0 l21 222 Z" /><glyph glyph-name="less" unicode="&lt;" d="M377 485 l0 -76 l-252 -103 l252 -104 l0 -75 l-332 138 l0 82 l332 138 Z" /><glyph glyph-name="equal" unicode="=" d="M45 350 l0 73 l362 0 l0 -73 l-362 0 ZM45 185 l0 73 l362 0 l0 -73 l-362 0 Z" /><glyph glyph-name="greater" unicode="&gt;" d="M45 485 l332 -138 l0 -82 l-332 -138 l0 75 l252 104 l-252 103 l0 76 Z" /><glyph glyph-name="question" unicode="?" d="M135 156 l0 54 q0 48 14.5 86.5 q14.5 38.5 36 64.5 q21.5 26 42.5 50.5 q21 24.5 35.5 56 q14.5 31.5 14.5 69.5 q0 45 -25.5 73 q-25.5 28 -68.5 28 q-42 0 -68 -29.5 q-26 -29.5 -27 -82.5 l-78 0 q4 85 51 135 q47 50 122 50 q75 0 123.5 -48.5 q48.5 -48.5 48.5 -125.5 q0 -46 -14.5 -83.5 q-14.5 -37.5 -35.5 -63.5 q-21 -26 -42 -51 q-21 -25 -35.5 -59 q-14.5 -34 -14.5 -75 l0 -49 l-79 0 ZM215 4 q-15 -15 -39 -15 q-24 0 -39 15 q-15 15 -15 40 q0 24 15 39 q15 15 39 15 q24 0 39 -15 q15 -15 15 -39 q0 -25 -15 -40 Z" /><glyph glyph-name="at" unicode="@" d="M398 731 q158 0 245 -85 q87 -85 87 -245 l0 -108 q0 -88 -42.5 -134 q-42.5 -46 -105.5 -46 q-72 -1 -102 55 q-31 -62 -104 -62 q-57 0 -92.5 39 q-35.5 39 -35.5 111 l0 111 q0 73 34.5 111 q34.5 38 90.5 38 q64 0 93 -49 l7 38 l53 0 l0 -265 q0 -62 56 -63 q81 0 81 116 l0 108 q0 131 -68.5 198 q-68.5 67 -196.5 67 q-134 0 -207.5 -73 q-73.5 -73 -73.5 -206 l0 -126 q0 -143 74 -221.5 q74 -78.5 206 -78.5 q128 0 205 54 l33 -55 q-88 -64 -235 -64 q-164 0 -257.5 96.5 q-93.5 96.5 -93.5 268.5 l0 126 q0 162 92.5 253 q92.5 91 256.5 91 ZM386 172 q34 0 54 21.5 q20 21.5 20 64.5 l0 108 q0 36 -19.5 60.5 q-19.5 24.5 -56.5 24.5 q-67 0 -67 -83 l0 -111 q0 -85 69 -85 Z" /><glyph glyph-name="A" unicode="a" d="M372 0 l-37 152 l-203 0 l-37 -152 l-86 0 l180 700 l89 0 l180 -700 l-86 0 ZM150 228 l167 0 l-57 237 q-14 58 -25 131 l-3 0 q-11 -73 -25 -131 l-57 -237 Z" /><glyph glyph-name="B" unicode="b" d="M358 361 q50 -16 78 -59 q28 -43 28 -106 q0 -93 -53.5 -144.5 q-53.5 -51.5 -146.5 -51.5 l-191 0 l0 700 l178 0 q87 0 136.5 -49.5 q49.5 -49.5 49.5 -136.5 q0 -56 -21 -96 q-21 -40 -58 -57 ZM245 623 l-90 0 l0 -227 l92 0 q106 0 106 116 q0 111 -108 111 ZM257 77 q124 0 124 119 q0 60 -35 91.5 q-35 31.5 -96 31.5 l-95 0 l0 -242 l102 0 Z" /><glyph glyph-name="C" unicode="c" d="M251 -12 q-90 0 -143.5 56 q-53.5 56 -53.5 158 l0 296 q0 102 53 158.5 q53 56.5 142 56.5 q91 0 143.5 -54 q52.5 -54 57.5 -155 l-81 0 q-9 132 -121 132 q-52 0 -82 -35 q-30 -35 -30 -103 l0 -296 q0 -68 31 -102.5 q31 -34.5 84 -34.5 q111 0 123 131 l81 0 q-6 -100 -59 -154 q-53 -54 -145 -54 Z" /><glyph glyph-name="D" unicode="d" d="M73 0 l0 700 l166 0 q101 0 156.5 -56 q55.5 -56 55.5 -156 l0 -276 q0 -100 -56 -156 q-56 -56 -155 -56 l-167 0 ZM155 78 l85 0 q62 0 95.5 34.5 q33.5 34.5 33.5 102.5 l0 271 q0 67 -33 101.5 q-33 34.5 -96 34.5 l-85 0 l0 -544 Z" /><glyph glyph-name="E" unicode="e" d="M155 77 l264 0 l0 -77 l-346 0 l0 700 l335 0 l0 -76 l-253 0 l0 -231 l235 0 l0 -75 l-235 0 l0 -241 Z" /><glyph glyph-name="F" unicode="f" d="M397 624 l-242 0 l0 -238 l224 0 l0 -76 l-224 0 l0 -310 l-82 0 l0 700 l324 0 l0 -76 Z" /><glyph glyph-name="G" unicode="g" d="M255 -11 q-92 0 -146.5 57 q-54.5 57 -54.5 159 l0 291 q0 104 52.5 159.5 q52.5 55.5 144.5 55.5 q90 0 142.5 -53.5 q52.5 -53.5 56.5 -153.5 l-81 0 q-6 129 -118 129 q-115 0 -115 -138 l0 -290 q0 -68 32 -103 q32 -35 87 -35 q56 0 88.5 33.5 q32.5 33.5 32.5 97.5 l0 106 l-123 0 l0 73 l202 0 l0 -179 q-1 -98 -55 -153.5 q-54 -55.5 -145 -55.5 Z" /><glyph glyph-name="H" unicode="h" d="M378 700 l83 0 l0 -700 l-83 0 l0 317 l-222 0 l0 -317 l-83 0 l0 700 l83 0 l0 -306 l222 0 l0 306 Z" /><glyph glyph-name="I" unicode="i" d="M73 700 l82 0 l0 -700 l-82 0 l0 700 Z" /><glyph glyph-name="J" unicode="j" d="M0 -99 l0 79 q59 0 87 30.5 q28 30.5 28 104.5 l0 585 l82 0 l0 -586 q0 -213 -197 -213 Z" /><glyph glyph-name="K" unicode="k" d="M397 0 l-194 324 l-48 -70 l0 -254 l-82 0 l0 700 l82 0 l0 -320 l52 84 l158 236 l99 0 l-212 -305 l240 -395 l-95 0 Z" /><glyph glyph-name="L" unicode="l" d="M155 78 l244 0 l0 -78 l-326 0 l0 700 l82 0 l0 -622 Z" /><glyph glyph-name="M" unicode="m" d="M512 700 l85 0 l0 -700 l-81 0 l0 321 q2 120 7 212 l-4 1 q-11 -31 -37.5 -100 q-26.5 -69 -32.5 -84 l-73 -189 l-81 0 l-74 189 q-10 27 -34.5 91 q-24.5 64 -34.5 93 l-5 -1 q7 -119 7 -212 l0 -321 l-81 0 l0 700 l86 0 l121 -293 q33 -81 53 -147 l4 0 q26 77 54 147 l121 293 Z" /><glyph glyph-name="N" unicode="n" d="M393 700 l81 0 l0 -700 l-83 0 l-172 376 q-36 81 -69 170 l-3 -1 q8 -124 8 -215 l0 -330 l-82 0 l0 700 l83 0 l175 -382 q34 -72 70 -163 l3 1 q-11 134 -11 220 l0 324 Z" /><glyph glyph-name="O" unicode="o" d="M414 49.5 q-55 -62.5 -152 -62.5 q-97 0 -152.5 62.5 q-55.5 62.5 -55.5 170.5 l0 261 q0 108 55.5 170 q55.5 62 152.5 62 q97 0 152 -62 q55 -62 55 -170 l0 -261 q0 -108 -55 -170.5 ZM262 67 q60 0 91.5 39.5 q31.5 39.5 31.5 113.5 l0 261 q0 73 -31.5 112.5 q-31.5 39.5 -91.5 39.5 q-61 0 -92.5 -39.5 q-31.5 -39.5 -31.5 -112.5 l0 -261 q0 -74 31.5 -113.5 q31.5 -39.5 92.5 -39.5 Z" /><glyph glyph-name="P" unicode="p" d="M250 700 q100 0 154 -57.5 q54 -57.5 54 -163.5 q0 -108 -54 -166 q-54 -58 -154 -58 l-95 0 l0 -255 l-82 0 l0 700 l177 0 ZM250 333 q125 0 125 146 q0 143 -125 143 l-95 0 l0 -289 l95 0 Z" /><glyph glyph-name="Q" unicode="q" d="M470 481 l0 -261 q0 -110 -57 -172 l56 -68 l-51 -45 l-60 72 q-42 -20 -96 -20 q-97 0 -152.5 62.5 q-55.5 62.5 -55.5 170.5 l0 261 q0 108 55.5 170 q55.5 62 152.5 62 q97 0 152.5 -62 q55.5 -62 55.5 -170 ZM295 190 l64 -77 q26 40 26 107 l0 261 q0 73 -31.5 112.5 q-31.5 39.5 -91.5 39.5 q-61 0 -92.5 -39.5 q-31.5 -39.5 -31.5 -112.5 l0 -261 q0 -74 31.5 -113.5 q31.5 -39.5 92.5 -39.5 q24 0 42 6 l-59 72 l50 45 Z" /><glyph glyph-name="R" unicode="r" d="M379 0 l-153 264 l-71 0 l0 -264 l-82 0 l0 700 l171 0 q99 0 152 -55.5 q53 -55.5 53 -156.5 q0 -86 -36.5 -141.5 q-36.5 -55.5 -102.5 -74.5 l162 -272 l-93 0 ZM155 623 l0 -282 l88 0 q60 0 91.5 37 q31.5 37 31.5 107 q0 138 -122 138 l-89 0 Z" /><glyph glyph-name="S" unicode="s" d="M229 -13 q-90 0 -144.5 54 q-54.5 54 -55.5 145 l83 0 q1 -58 32 -89 q31 -31 84 -31 q55 0 84 31 q29 31 29 82 q0 41 -31 74.5 q-31 33.5 -75.5 59 q-44.5 25.5 -88.5 53.5 q-44 28 -75 72 q-31 44 -31 101 q0 75 51.5 124.5 q51.5 49.5 135.5 49.5 q85 0 135.5 -52.5 q50.5 -52.5 53.5 -139.5 l-83 0 q-2 56 -30 84.5 q-28 28.5 -75 28.5 q-49 0 -77 -26 q-28 -26 -28 -70 q0 -35 22.5 -64 q22.5 -29 56 -48 q33.5 -19 72.5 -43.5 q39 -24.5 72.5 -49 q33.5 -24.5 56 -65 q22.5 -40.5 22.5 -90.5 q0 -79 -52.5 -135 q-52.5 -56 -143.5 -56 Z" /><glyph glyph-name="T" unicode="t" d="M400 700 l0 -77 l-150 0 l0 -623 l-83 0 l0 623 l-150 0 l0 77 l383 0 Z" /><glyph glyph-name="U" unicode="u" d="M406 48 q-54 -58 -145 -58 q-91 0 -145 58 q-54 58 -54 164 l0 488 l84 0 l0 -488 q0 -71 30.5 -106.5 q30.5 -35.5 84.5 -35.5 q54 0 85 35.5 q31 35.5 31 106.5 l0 488 l83 0 l0 -488 q0 -106 -54 -164 Z" /><glyph glyph-name="V" unicode="v" d="M184 0 l-175 700 l86 0 l95 -411 q8 -37 20.5 -98 q12.5 -61 17.5 -84 l4 0 q23 115 38 182 l94 411 l87 0 l-175 -700 l-92 0 Z" /><glyph glyph-name="W" unicode="w" d="M638 700 l85 0 l-156 -700 l-89 0 l-76 344 q-23 102 -34 223 l-4 0 q-11 -121 -34 -223 l-76 -344 l-89 0 l-156 700 l86 0 l79 -407 q27 -138 33 -182 l4 0 q4 28 34 190 l77 388 l88 0 l77 -388 q29 -162 34 -190 l4 0 q6 44 33 182 l80 407 Z" /><glyph glyph-name="X" unicode="x" d="M446 0 l-91 0 l-123 282 l-123 -282 l-91 0 l168 364 l-159 336 l91 0 l114 -258 l114 258 l91 0 l-159 -336 l168 -364 Z" /><glyph glyph-name="Y" unicode="y" d="M176 0 l0 240 l-172 460 l86 0 l89 -251 q20 -55 38 -109 l1 0 q20 60 38 111 l89 249 l86 0 l-173 -460 l0 -240 l-82 0 Z" /><glyph glyph-name="Z" unicode="z" d="M117 77 l270 0 l0 -77 l-369 0 l0 59 l264 564 l-250 0 l0 77 l350 0 l0 -56 l-265 -567 Z" /><glyph glyph-name="bracketleft" unicode="[" d="M238 747 l-86 0 l0 -794 l86 0 l0 -73 l-165 0 l0 940 l165 0 l0 -73 Z" /><glyph glyph-name="backslash" unicode="\" d="M118 812 l324 -929 l-73 0 l-325 929 l74 0 Z" /><glyph glyph-name="bracketright" unicode="]" d="M49 -47 l86 0 l0 794 l-86 0 l0 73 l165 0 l0 -940 l-165 0 l0 73 Z" /><glyph glyph-name="asciicircum" unicode="^" d="M310 477 l-76 0 l-72 156 l-74 -156 l-75 0 l109 223 l78 0 l110 -223 Z" /><glyph glyph-name="underscore" unicode="_" d="M21 -9 l355 0 l0 -75 l-355 0 l0 75 Z" /><glyph glyph-name="a" unicode="a" d="M223 539 q79 0 122.5 -48 q43.5 -48 43.5 -134 l0 -357 l-65 0 l-6 50 q-40 -63 -120 -63 q-73 0 -118.5 44 q-45.5 44 -45.5 119 q0 77 49.5 118.5 q49.5 41.5 136.5 41.5 l90 0 l0 46 q0 107 -89 107 q-39 0 -64 -21 q-25 -21 -28 -60 l-79 0 q3 72 50 114.5 q47 42.5 123 42.5 ZM310 153 l0 87 l-91 0 q-51 0 -78 -23.5 q-27 -23.5 -27 -67.5 q0 -43 26.5 -66 q26.5 -23 72.5 -23 q45 0 71 25.5 q26 25.5 26 67.5 Z" /><glyph glyph-name="b" unicode="b" d="M250 539 q77 0 121.5 -52 q44.5 -52 44.5 -148 l0 -148 q0 -96 -45.5 -149.5 q-45.5 -53.5 -120.5 -53.5 q-36 0 -68.5 16.5 q-32.5 16.5 -52.5 44.5 l-8 -49 l-59 0 l0 724 l77 0 l0 -235 q44 50 111 50 ZM336 191 l0 148 q0 126 -100 126 q-45 0 -71 -34.5 q-26 -34.5 -26 -91.5 l0 -149 q0 -63 27 -95.5 q27 -32.5 70 -32.5 q100 0 100 129 Z" /><glyph glyph-name="c" unicode="c" d="M223 -11 q-80 0 -127 50.5 q-47 50.5 -47 140.5 l0 169 q0 90 47 140 q47 50 127 50 q82 0 128.5 -49.5 q46.5 -49.5 49.5 -140.5 l-80 0 q-3 114 -98 114 q-94 0 -94 -114 l0 -169 q0 -114 94 -114 q96 0 100 114 l79 0 q-2 -91 -49.5 -141 q-47.5 -50 -129.5 -50 Z" /><glyph glyph-name="d" unicode="d" d="M326 724 l77 0 l0 -724 l-59 0 l-8 49 q-20 -28 -52.5 -44.5 q-32.5 -16.5 -68.5 -16.5 q-75 0 -120.5 53.5 q-45.5 53.5 -45.5 149.5 l0 148 q0 96 44.5 148 q44.5 52 121.5 52 q67 0 111 -50 l0 235 ZM326 190 l0 149 q0 57 -26 91.5 q-26 34.5 -71 34.5 q-100 0 -100 -126 l0 -148 q0 -129 100 -129 q43 0 70 32.5 q27 32.5 27 95.5 Z" /><glyph glyph-name="e" unicode="e" d="M333 163 l78 0 q-6 -83 -54.5 -128.5 q-48.5 -45.5 -132.5 -45.5 q-81 0 -128 51 q-47 51 -47 142 l0 165 q0 91 47.5 141.5 q47.5 50.5 128.5 50.5 q83 0 131 -50.5 q48 -50.5 48 -141.5 l0 -117 l-275 0 l0 -48 q0 -116 97 -116 q50 0 75 23 q25 23 32 74 ZM226 464 q-97 0 -97 -116 l0 -53 l197 0 l0 53 q0 116 -100 116 Z" /><glyph glyph-name="f" unicode="f" d="M258 666 q-89 0 -89 -103 l0 -37 l108 0 l0 -71 l-108 0 l0 -455 l-78 0 l0 455 l-79 0 l0 71 l79 0 l0 37 q0 82 42.5 128.5 q42.5 46.5 124.5 46.5 l30 0 l0 -72 l-30 0 Z" /><glyph glyph-name="g" unicode="g" d="M345 526 l60 0 l0 -557 q0 -74 -46.5 -118 q-46.5 -44 -125.5 -44 q-76 0 -122 42.5 q-46 42.5 -50 115.5 l77 0 q3 -41 27.5 -63 q24.5 -22 67.5 -22 q44 0 68.5 23.5 q24.5 23.5 24.5 65.5 l0 91 q-41 -41 -107 -41 q-77 0 -123.5 51 q-46.5 51 -46.5 139 l0 130 q0 94 46 147 q46 53 122 53 q76 0 119 -60 l9 47 ZM232 93 q94 0 94 116 l0 138 q0 57 -26 87 q-26 30 -68 30 q-103 0 -103 -125 l0 -130 q0 -116 103 -116 Z" /><glyph glyph-name="h" unicode="h" d="M266 539 q143 0 143 -220 l0 -319 l-78 0 l0 315 q0 79 -21 114 q-21 35 -65 35 q-48 0 -76.5 -37.5 q-28.5 -37.5 -28.5 -104.5 l0 -322 l-78 0 l0 721 l78 0 l0 -254 q44 72 126 72 Z" /><glyph glyph-name="i" unicode="i" d="M101 619 q-25 0 -40 15 q-15 15 -15 39 q0 25 15 40 q15 15 40 15 q24 0 39.5 -15 q15.5 -15 15.5 -40 q0 -23 -15.5 -38.5 q-15.5 -15.5 -39.5 -15.5 ZM62 0 l0 526 l79 0 l0 -526 l-79 0 Z" /><glyph glyph-name="j" unicode="j" d="M123 618 q-25 0 -40 15 q-15 15 -15 39 q0 25 15 40 q15 15 40 15 q24 0 39.5 -15 q15.5 -15 15.5 -40 q0 -23 -15.5 -38.5 q-15.5 -15.5 -39.5 -15.5 ZM-17 -193 l0 76 q54 1 77.5 28.5 q23.5 27.5 23.5 83.5 l0 531 l78 0 l0 -529 q0 -90 -44.5 -139.5 q-44.5 -49.5 -134.5 -50.5 Z" /><glyph glyph-name="k" unicode="k" d="M343 0 l-158 254 l-45 -50 l0 -204 l-78 0 l0 724 l78 0 l0 -419 l174 221 l95 0 l-171 -212 l197 -314 l-92 0 Z" /><glyph glyph-name="l" unicode="l" d="M63 0 l0 724 l78 0 l0 -724 l-78 0 Z" /><glyph glyph-name="m" unicode="m" d="M523 539 q66 0 103 -52.5 q37 -52.5 37 -154.5 l0 -332 l-78 0 l0 328 q0 136 -80 136 q-47 0 -75 -38 q-28 -38 -28 -104 l0 -322 l-78 0 l0 328 q0 136 -82 136 q-46 0 -74 -37.5 q-28 -37.5 -28 -104.5 l0 -322 l-78 0 l0 526 l59 0 l10 -63 q42 76 128 76 q91 0 125 -90 q41 90 139 90 Z" /><glyph glyph-name="n" unicode="n" d="M265 539 q144 0 144 -206 l0 -333 l-78 0 l0 327 q0 71 -20.5 104 q-20.5 33 -65.5 33 q-48 0 -76.5 -37.5 q-28.5 -37.5 -28.5 -104.5 l0 -322 l-78 0 l0 526 l59 0 l10 -62 q44 75 134 75 Z" /><glyph glyph-name="o" unicode="o" d="M362 39 q-48 -51 -132 -51 q-84 0 -132.5 51 q-48.5 51 -48.5 144 l0 161 q0 93 48.5 144 q48.5 51 132.5 51 q84 0 132 -51 q48 -51 48 -144 l0 -161 q0 -93 -48 -144 ZM129 183 q0 -119 101 -119 q101 0 101 119 l0 161 q0 118 -101 118 q-101 0 -101 -118 l0 -161 Z" /><glyph glyph-name="p" unicode="p" d="M250 538 q75 0 120.5 -53.5 q45.5 -53.5 45.5 -149.5 l0 -147 q0 -96 -44.5 -148 q-44.5 -52 -121.5 -52 q-67 0 -111 50 l0 -218 l-77 0 l0 707 l59 0 l8 -49 q45 60 121 60 ZM336 188 l0 147 q0 130 -100 130 q-43 0 -70 -33 q-27 -33 -27 -95 l0 -149 q0 -57 26 -91.5 q26 -34.5 71 -34.5 q100 0 100 126 Z" /><glyph glyph-name="q" unicode="q" d="M344 527 l59 0 l0 -707 l-77 0 l0 218 q-44 -50 -111 -50 q-77 0 -121.5 52 q-44.5 52 -44.5 148 l0 147 q0 96 45.5 149.5 q45.5 53.5 120.5 53.5 q76 0 121 -60 l8 49 ZM229 62 q45 0 71 34.5 q26 34.5 26 91.5 l0 149 q0 62 -27 95 q-27 33 -70 33 q-100 0 -100 -130 l0 -147 q0 -126 100 -126 Z" /><glyph glyph-name="r" unicode="r" d="M268 538 q32 0 54 -7 l0 -80 q-30 11 -66 11 q-53 0 -84.5 -37 q-31.5 -37 -31.5 -103 l0 -322 l-78 0 l0 526 l59 0 l11 -64 q44 76 136 76 Z" /><glyph glyph-name="s" unicode="s" d="M210 -13 q-83 0 -132 48 q-49 48 -50 124 l78 0 q1 -45 27.5 -71 q26.5 -26 75.5 -26 q43 0 67 20.5 q24 20.5 24 56.5 q0 32 -27.5 53.5 q-27.5 21.5 -66 36 q-38.5 14.5 -77.5 31.5 q-39 17 -66.5 50.5 q-27.5 33.5 -27.5 83.5 q0 66 45 105.5 q45 39.5 120 39.5 q78 0 122.5 -45 q44.5 -45 46.5 -120 l-77 0 q-1 43 -24.5 67.5 q-23.5 24.5 -67.5 24.5 q-40 0 -63 -19.5 q-23 -19.5 -23 -53.5 q0 -30 27.5 -50.5 q27.5 -20.5 66 -34 q38.5 -13.5 77.5 -31 q39 -17.5 66.5 -52.5 q27.5 -35 27.5 -87 q0 -68 -46 -109.5 q-46 -41.5 -123 -41.5 Z" /><glyph glyph-name="t" unicode="t" d="M253 68 l31 0 l0 -74 l-33 0 q-75 0 -116.5 45 q-41.5 45 -41.5 124 l0 291 l-78 0 l0 72 l78 0 l0 123 l78 0 l0 -123 l102 0 l0 -72 l-102 0 l0 -291 q0 -95 82 -95 Z" /><glyph glyph-name="u" unicode="u" d="M326 526 l78 0 l0 -526 l-59 0 l-10 62 q-44 -75 -134 -75 q-144 0 -144 206 l0 333 l78 0 l0 -327 q0 -71 20.5 -104 q20.5 -33 65.5 -33 q48 0 76.5 37.5 q28.5 37.5 28.5 104.5 l0 322 Z" /><glyph glyph-name="v" unicode="v" d="M304 526 l83 0 l-147 -526 l-87 0 l-147 526 l83 0 l70 -271 q17 -72 35 -158 l5 0 q18 86 35 158 l70 271 Z" /><glyph glyph-name="w" unicode="w" d="M535 526 l82 0 l-128 -526 l-86 0 l-54 225 q-29 119 -36 194 l-3 0 q-7 -75 -36 -194 l-55 -225 l-85 0 l-128 526 l82 0 l56 -260 q3 -13 32 -174 l3 0 q16 100 35 185 l55 239 l84 0 l56 -239 q23 -112 35 -185 l3 0 q12 78 32 174 l56 260 Z" /><glyph glyph-name="x" unicode="x" d="M392 0 l-90 0 l-105 201 l-105 -201 l-90 0 l148 263 l-139 263 l88 0 l98 -193 l99 193 l87 0 l-138 -263 l147 -263 Z" /><glyph glyph-name="y" unicode="y" d="M315 526 l81 0 l-172 -578 q-20 -68 -50 -103 q-30 -35 -84 -35 l-43 0 l0 76 l30 0 q29 0 44 18.5 q15 18.5 26 56.5 l28 93 l-169 472 l83 0 l120 -357 l106 357 Z" /><glyph glyph-name="z" unicode="z" d="M110 73 l230 0 l0 -73 l-327 0 l0 57 l221 397 l-208 0 l0 72 l305 0 l0 -56 l-221 -397 Z" /><glyph glyph-name="braceleft" unicode="{" d="M203 488 q0 -89 -67 -135 q67 -46 67 -134 l0 -170 q0 -42 24 -68.5 q24 -26.5 62 -26.5 l0 -74 q-72 0 -117.5 48 q-45.5 48 -45.5 125 l0 170 q0 39 -21.5 62 q-21.5 23 -55.5 29 l0 78 q34 6 55.5 29 q21.5 23 21.5 62 l0 164 q0 77 45.5 125 q45.5 48 117.5 48 l0 -74 q-38 0 -62 -26 q-24 -26 -24 -68 l0 -164 Z" /><glyph glyph-name="bar" unicode="|" d="M63 798 l77 0 l0 -887 l-77 0 l0 887 Z" /><glyph glyph-name="braceright" unicode="}" d="M212 478 q0 -39 21.5 -62 q21.5 -23 55.5 -29 l0 -78 q-34 -6 -55.5 -29 q-21.5 -23 -21.5 -62 l0 -164 q0 -77 -45.5 -125 q-45.5 -48 -117.5 -48 l0 74 q38 0 62 26 q24 26 24 68 l0 164 q0 89 67 135 q-67 46 -67 134 l0 170 q0 42 -24 68.5 q-24 26.5 -62 26.5 l0 74 q72 0 117.5 -48 q45.5 -48 45.5 -125 l0 -170 Z" /><glyph glyph-name="asciitilde" unicode="~" d="M379 353 l42 -52 q-40 -58 -98 -58 q-33 0 -93 24 q-60 24 -82 24 q-38 0 -63 -38 l-41 55 q41 56 97 56 q33 0 93 -24 q60 -24 82 -24 q38 0 63 37 Z" /><glyph glyph-name="uni0401" unicode="&#x401;" d="M210 797 q-12 -12 -32 -12 q-20 0 -33 12 q-13 12 -13 32 q0 21 12.5 33 q12.5 12 33.5 12 q20 0 32 -12 q12 -12 12 -33 q0 -20 -12 -32 ZM348.5 797 q-12.5 -12 -32.5 -12 q-20 0 -33 12 q-13 12 -13 32 q0 21 12.5 33 q12.5 12 33.5 12 q20 0 32.5 -12 q12.5 -12 12.5 -33 q0 -20 -12.5 -32 ZM155 77 l264 0 l0 -77 l-346 0 l0 700 l335 0 l0 -76 l-253 0 l0 -231 l235 0 l0 -75 l-235 0 l0 -241 Z" /><glyph glyph-name="uni0402" unicode="&#x402;" d="M367 525 q143 0 143 -218 l0 -132 q0 -87 -45 -134 q-45 -47 -132 -48 l0 75 q52 1 75 27 q23 26 23 80 l0 128 q0 78 -20.5 113 q-20.5 35 -63.5 35 q-48 0 -76 -36.5 q-28 -36.5 -28 -101.5 l0 -313 l-83 0 l0 623 l-143 0 l0 77 l368 0 l0 -77 l-142 0 l0 -167 q43 69 124 69 Z" /><glyph glyph-name="uni0403" unicode="&#x403;" d="M344 888 l-107 -119 l-68 0 l92 119 l83 0 ZM401 700 l0 -77 l-246 0 l0 -623 l-82 0 l0 700 l328 0 Z" /><glyph glyph-name="uni0404" unicode="&#x404;" d="M374 196 l81 0 q-6 -100 -59 -154 q-53 -54 -145 -54 q-90 0 -143.5 56 q-53.5 56 -53.5 158 l0 296 q0 102 53 158.5 q53 56.5 142 56.5 q91 0 143.5 -54 q52.5 -54 57.5 -155 l-81 0 q-9 132 -121 132 q-52 0 -82 -35 q-30 -35 -30 -103 l0 -106 l196 0 l0 -72 l-196 0 l0 -118 q0 -68 31 -102.5 q31 -34.5 84 -34.5 q111 0 123 131 Z" /><glyph glyph-name="uni0405" unicode="&#x405;" d="M229 -13 q-90 0 -144.5 54 q-54.5 54 -55.5 145 l83 0 q1 -58 32 -89 q31 -31 84 -31 q55 0 84 31 q29 31 29 82 q0 41 -31 74.5 q-31 33.5 -75.5 59 q-44.5 25.5 -88.5 53.5 q-44 28 -75 72 q-31 44 -31 101 q0 75 51.5 124.5 q51.5 49.5 135.5 49.5 q85 0 135.5 -52.5 q50.5 -52.5 53.5 -139.5 l-83 0 q-2 56 -30 84.5 q-28 28.5 -75 28.5 q-49 0 -77 -26 q-28 -26 -28 -70 q0 -35 22.5 -64 q22.5 -29 56 -48 q33.5 -19 72.5 -43.5 q39 -24.5 72.5 -49 q33.5 -24.5 56 -65 q22.5 -40.5 22.5 -90.5 q0 -79 -52.5 -135 q-52.5 -56 -143.5 -56 Z" /><glyph glyph-name="uni0406" unicode="&#x406;" d="M73 700 l82 0 l0 -700 l-82 0 l0 700 Z" /><glyph glyph-name="uni0407" unicode="&#x407;" d="M79 797 q-12 -12 -32 -12 q-20 0 -33 12 q-13 12 -13 32 q0 21 12.5 33 q12.5 12 33.5 12 q20 0 32 -12 q12 -12 12 -33 q0 -20 -12 -32 ZM217.5 797 q-12.5 -12 -32.5 -12 q-20 0 -33 12 q-13 12 -13 32 q0 21 12.5 33 q12.5 12 33.5 12 q20 0 32.5 -12 q12.5 -12 12.5 -33 q0 -20 -12.5 -32 ZM73 700 l82 0 l0 -700 l-82 0 l0 700 Z" /><glyph glyph-name="uni0408" unicode="&#x408;" d="M0 -99 l0 79 q59 0 87 30.5 q28 30.5 28 104.5 l0 585 l82 0 l0 -586 q0 -213 -197 -213 Z" /><glyph glyph-name="uni0409" unicode="&#x409;" d="M0 -10 l0 77 q61 0 75 97 q13 97 29 536 l315 0 l0 -286 l88 0 q99 0 154 -55 q55 -55 55 -152 q0 -99 -55 -153 q-55 -54 -154 -54 l-171 0 l0 623 l-154 0 q-15 -375 -29 -476 q-13 -81 -50.5 -119 q-37.5 -38 -102.5 -38 ZM419 77 l85 0 q60 0 93.5 33.5 q33.5 33.5 33.5 97.5 q0 63 -33.5 95.5 q-33.5 32.5 -93.5 32.5 l-85 0 l0 -259 Z" /><glyph glyph-name="uni040A" unicode="&#x40a;" d="M547 407 q98 0 153.5 -53.5 q55.5 -53.5 55.5 -146.5 q0 -99 -55 -153 q-55 -54 -154 -54 l-174 0 l0 329 l-218 0 l0 -329 l-82 0 l0 700 l82 0 l0 -294 l218 0 l0 294 l82 0 l0 -293 l92 0 ZM544 77 q61 0 94 33 q33 33 33 97 q0 60 -33 91 q-33 31 -94 31 l-89 0 l0 -252 l89 0 Z" /><glyph glyph-name="uni040B" unicode="&#x40b;" d="M367 525 q143 0 143 -218 l0 -307 l-79 0 l0 303 q0 78 -20.5 113 q-20.5 35 -63.5 35 q-47 0 -75 -36.5 q-28 -36.5 -29 -100.5 l0 -314 l-83 0 l0 623 l-143 0 l0 77 l368 0 l0 -77 l-142 0 l0 -167 q43 69 124 69 Z" /><glyph glyph-name="uni040C" unicode="&#x40c;" d="M347 888 l-107 -119 l-68 0 l92 119 l83 0 ZM397 0 l-194 324 l-48 -70 l0 -254 l-82 0 l0 700 l82 0 l0 -320 l52 84 l158 236 l99 0 l-212 -305 l240 -395 l-95 0 Z" /><glyph glyph-name="uni040D" unicode="&#x40d;" d="M328 769 l-68 0 l-107 119 l83 0 l92 -119 ZM73 0 l0 700 l81 0 l0 -373 q0 -96 -6 -168 l3 -2 q28 73 49 119 l186 424 l88 0 l0 -700 l-81 0 l0 381 q0 76 4 162 l-2 2 q-30 -78 -44 -110 l-192 -435 l-86 0 Z" /><glyph glyph-name="uni040E" unicode="&#x40e;" d="M214 767 q-53 0 -84 31 q-31 31 -33 87 l60 0 q5 -59 56 -59 q53 0 56 59 l61 0 q-2 -56 -33 -87 q-31 -31 -83 -31 ZM330 700 l85 0 l-172 -563 q-23 -76 -62.5 -111.5 q-39.5 -35.5 -110.5 -35.5 l-24 0 l0 76 l26 0 q39 0 60.5 23 q21.5 23 36.5 73 l15 49 l-177 489 l86 0 l127 -367 l110 367 Z" /><glyph glyph-name="uni040F" unicode="&#x40f;" d="M227 -116 l0 116 l-154 0 l0 700 l82 0 l0 -623 l223 0 l0 623 l82 0 l0 -700 l-153 0 l0 -116 l-80 0 Z" /><glyph glyph-name="uni0410" unicode="&#x410;" d="M372 0 l-37 152 l-203 0 l-37 -152 l-86 0 l180 700 l89 0 l180 -700 l-86 0 ZM150 228 l167 0 l-57 237 q-14 58 -25 131 l-3 0 q-11 -73 -25 -131 l-57 -237 Z" /><glyph glyph-name="uni0411" unicode="&#x411;" d="M258 420 q95 0 150.5 -55.5 q55.5 -55.5 55.5 -152.5 q0 -101 -55 -156.5 q-55 -55.5 -151 -55.5 l-185 0 l0 700 l353 0 l0 -77 l-270 0 l0 -203 l102 0 ZM255 77 q58 0 91.5 34.5 q33.5 34.5 33.5 100.5 q0 64 -33.5 98 q-33.5 34 -91.5 34 l-99 0 l0 -267 l99 0 Z" /><glyph glyph-name="uni0412" unicode="&#x412;" d="M358 361 q50 -16 78 -59 q28 -43 28 -106 q0 -93 -53.5 -144.5 q-53.5 -51.5 -146.5 -51.5 l-191 0 l0 700 l178 0 q87 0 136.5 -49.5 q49.5 -49.5 49.5 -136.5 q0 -56 -21 -96 q-21 -40 -58 -57 ZM245 623 l-90 0 l0 -227 l92 0 q106 0 106 116 q0 111 -108 111 ZM257 77 q124 0 124 119 q0 60 -35 91.5 q-35 31.5 -96 31.5 l-95 0 l0 -242 l102 0 Z" /><glyph glyph-name="uni0413" unicode="&#x413;" d="M401 700 l0 -77 l-246 0 l0 -623 l-82 0 l0 700 l328 0 Z" /><glyph glyph-name="uni0414" unicode="&#x414;" d="M453 77 l61 0 l0 -193 l-80 0 l0 116 l-348 0 l0 -116 l-80 0 l0 193 l40 0 q71 71 78 264 l12 359 l317 0 l0 -623 ZM371 77 l0 546 l-158 0 l-11 -305 q-6 -154 -57 -241 l226 0 Z" /><glyph glyph-name="uni0415" unicode="&#x415;" d="M155 77 l264 0 l0 -77 l-346 0 l0 700 l335 0 l0 -76 l-253 0 l0 -231 l235 0 l0 -75 l-235 0 l0 -241 Z" /><glyph glyph-name="uni0416" unicode="&#x416;" d="M614 0 l-187 310 l-33 -49 l0 -261 l-79 0 l0 260 l-34 50 l-186 -310 l-95 0 l234 379 l-217 321 l95 0 l149 -228 l54 -89 l0 317 l79 0 l0 -317 l58 94 l145 223 l95 0 l-218 -321 l235 -379 l-95 0 Z" /><glyph glyph-name="uni0417" unicode="&#x417;" d="M322 362 q125 -33 125 -171 q0 -94 -58 -149 q-58 -55 -149 -55 q-94 0 -150.5 58 q-56.5 58 -60.5 149 l83 0 q3 -57 36 -92.5 q33 -35.5 91 -35.5 q56 0 90.5 34.5 q34.5 34.5 34.5 92.5 q0 63 -38 96.5 q-38 33.5 -99 33.5 l-55 0 l0 74 l47 0 q60 0 94.5 30 q34.5 30 34.5 92 q0 55 -29 85.5 q-29 30.5 -81 30.5 q-107 0 -117 -130 l-82 0 q6 97 57 153 q51 56 142 56 q88 0 140 -52.5 q52 -52.5 52 -145.5 q0 -118 -108 -154 Z" /><glyph glyph-name="uni0418" unicode="&#x418;" d="M73 0 l0 700 l81 0 l0 -373 q0 -96 -6 -168 l3 -2 q28 73 49 119 l186 424 l88 0 l0 -700 l-81 0 l0 381 q0 76 4 162 l-2 2 q-30 -78 -44 -110 l-192 -435 l-86 0 Z" /><glyph glyph-name="uni0419" unicode="&#x419;" d="M276 767 q-53 0 -84 31 q-31 31 -33 87 l60 0 q5 -59 56 -59 q53 0 56 59 l61 0 q-2 -56 -33 -87 q-31 -31 -83 -31 ZM73 0 l0 700 l81 0 l0 -373 q0 -96 -6 -168 l3 -2 q28 73 49 119 l186 424 l88 0 l0 -700 l-81 0 l0 381 q0 76 4 162 l-2 2 q-30 -78 -44 -110 l-192 -435 l-86 0 Z" /><glyph glyph-name="uni041A" unicode="&#x41a;" d="M397 0 l-194 324 l-48 -70 l0 -254 l-82 0 l0 700 l82 0 l0 -320 l52 84 l158 236 l99 0 l-212 -305 l240 -395 l-95 0 Z" /><glyph glyph-name="uni041B" unicode="&#x41b;" d="M107 700 l324 0 l0 -700 l-82 0 l0 623 l-163 0 q-18 -385 -31 -476 q-22 -157 -155 -157 l0 77 q62 0 76 96 q14 107 31 537 Z" /><glyph glyph-name="uni041C" unicode="&#x41c;" d="M512 700 l85 0 l0 -700 l-81 0 l0 321 q2 120 7 212 l-4 1 q-11 -31 -37.5 -100 q-26.5 -69 -32.5 -84 l-73 -189 l-81 0 l-74 189 q-10 27 -34.5 91 q-24.5 64 -34.5 93 l-5 -1 q7 -119 7 -212 l0 -321 l-81 0 l0 700 l86 0 l121 -293 q33 -81 53 -147 l4 0 q26 77 54 147 l121 293 Z" /><glyph glyph-name="uni041D" unicode="&#x41d;" d="M378 700 l83 0 l0 -700 l-83 0 l0 317 l-222 0 l0 -317 l-83 0 l0 700 l83 0 l0 -306 l222 0 l0 306 Z" /><glyph glyph-name="uni041E" unicode="&#x41e;" d="M414 49.5 q-55 -62.5 -152 -62.5 q-97 0 -152.5 62.5 q-55.5 62.5 -55.5 170.5 l0 261 q0 108 55.5 170 q55.5 62 152.5 62 q97 0 152 -62 q55 -62 55 -170 l0 -261 q0 -108 -55 -170.5 ZM262 67 q60 0 91.5 39.5 q31.5 39.5 31.5 113.5 l0 261 q0 73 -31.5 112.5 q-31.5 39.5 -91.5 39.5 q-61 0 -92.5 -39.5 q-31.5 -39.5 -31.5 -112.5 l0 -261 q0 -74 31.5 -113.5 q31.5 -39.5 92.5 -39.5 Z" /><glyph glyph-name="uni041F" unicode="&#x41f;" d="M460 700 l0 -700 l-82 0 l0 623 l-223 0 l0 -623 l-82 0 l0 700 l387 0 Z" /><glyph glyph-name="uni0420" unicode="&#x420;" d="M250 700 q100 0 154 -57.5 q54 -57.5 54 -163.5 q0 -108 -54 -166 q-54 -58 -154 -58 l-95 0 l0 -255 l-82 0 l0 700 l177 0 ZM250 333 q125 0 125 146 q0 143 -125 143 l-95 0 l0 -289 l95 0 Z" /><glyph glyph-name="uni0421" unicode="&#x421;" d="M251 -12 q-90 0 -143.5 56 q-53.5 56 -53.5 158 l0 296 q0 102 53 158.5 q53 56.5 142 56.5 q91 0 143.5 -54 q52.5 -54 57.5 -155 l-81 0 q-9 132 -121 132 q-52 0 -82 -35 q-30 -35 -30 -103 l0 -296 q0 -68 31 -102.5 q31 -34.5 84 -34.5 q111 0 123 131 l81 0 q-6 -100 -59 -154 q-53 -54 -145 -54 Z" /><glyph glyph-name="uni0422" unicode="&#x422;" d="M400 700 l0 -77 l-150 0 l0 -623 l-83 0 l0 623 l-150 0 l0 77 l383 0 Z" /><glyph glyph-name="uni0423" unicode="&#x423;" d="M330 700 l85 0 l-172 -563 q-23 -76 -62.5 -111.5 q-39.5 -35.5 -110.5 -35.5 l-24 0 l0 76 l26 0 q39 0 60.5 23 q21.5 23 36.5 73 l15 49 l-177 489 l86 0 l127 -367 l110 367 Z" /><glyph glyph-name="uni0424" unicode="&#x424;" d="M288 -59 l0 78 l-18 0 q-109 0 -173 66.5 q-64 66.5 -64 186.5 l0 155 q0 121 64 188 q64 67 173 67 l18 0 l0 73 l81 0 l0 -73 l18 0 q110 0 174 -67 q64 -67 64 -188 l0 -155 q0 -120 -64 -186.5 q-64 -66.5 -174 -66.5 l-18 0 l0 -78 l-81 0 ZM269 98 l19 0 l0 505 l-19 0 q-154 0 -154 -176 l0 -155 q0 -174 154 -174 ZM369 98 l20 0 q154 0 154 174 l0 155 q0 176 -154 176 l-20 0 l0 -505 Z" /><glyph glyph-name="uni0425" unicode="&#x425;" d="M446 0 l-91 0 l-123 282 l-123 -282 l-91 0 l168 364 l-159 336 l91 0 l114 -258 l114 258 l91 0 l-159 -336 l168 -364 Z" /><glyph glyph-name="uni0426" unicode="&#x426;" d="M439 -116 l0 116 l-366 0 l0 700 l83 0 l0 -623 l218 0 l0 623 l82 0 l0 -623 l63 0 l0 -193 l-80 0 Z" /><glyph glyph-name="uni0427" unicode="&#x427;" d="M345 700 l82 0 l0 -701 l-82 0 l0 267 q-49 -19 -99 -19 q-96 0 -151.5 57 q-55.5 57 -55.5 160 l0 236 l82 0 l0 -237 q0 -69 34 -104 q34 -35 97 -35 q48 0 93 19 l0 357 Z" /><glyph glyph-name="uni0428" unicode="&#x428;" d="M73 0 l0 700 l82 0 l0 -623 l203 0 l0 623 l82 0 l0 -623 l203 0 l0 623 l81 0 l0 -700 l-651 0 Z" /><glyph glyph-name="uni0429" unicode="&#x429;" d="M723 77 l62 0 l0 -193 l-80 0 l0 116 l-632 0 l0 700 l82 0 l0 -623 l203 0 l0 623 l81 0 l0 -623 l203 0 l0 623 l81 0 l0 -623 Z" /><glyph glyph-name="uni042A" unicode="&#x42a;" d="M140 0 l0 624 l-124 0 l0 76 l207 0 l0 -283 l90 0 q99 0 155 -55.5 q56 -55.5 56 -151.5 q0 -101 -55.5 -155.5 q-55.5 -54.5 -155.5 -54.5 l-173 0 ZM223 77 l87 0 q62 0 96 34 q34 34 34 99 q0 63 -34 96 q-34 33 -96 33 l-87 0 l0 -262 Z" /><glyph glyph-name="uni042B" unicode="&#x42b;" d="M73 0 l0 700 l84 0 l0 -286 l85 0 q98 0 153.5 -55 q55.5 -55 55.5 -151 q0 -99 -55 -153.5 q-55 -54.5 -154 -54.5 l-169 0 ZM541 0 l0 700 l82 0 l0 -700 l-82 0 ZM157 77 l82 0 q60 0 93.5 33.5 q33.5 33.5 33.5 97.5 q0 63 -33.5 95.5 q-33.5 32.5 -93.5 32.5 l-82 0 l0 -259 Z" /><glyph glyph-name="uni042C" unicode="&#x42c;" d="M73 0 l0 700 l83 0 l0 -285 l101 0 q95 0 149.5 -55.5 q54.5 -55.5 54.5 -150.5 q0 -100 -54 -154.5 q-54 -54.5 -150 -54.5 l-184 0 ZM156 76 l98 0 q57 0 90 34 q33 34 33 99 q0 62 -33 95 q-33 33 -90 33 l-98 0 l0 -261 Z" /><glyph glyph-name="uni042D" unicode="&#x42d;" d="M237 713 q89 0 142 -56.5 q53 -56.5 53 -158.5 l0 -296 q0 -102 -53.5 -158 q-53.5 -56 -143.5 -56 q-92 0 -145 54 q-53 54 -59 154 l81 0 q12 -131 123 -131 q53 0 84 34.5 q31 34.5 31 102.5 l0 118 l-196 0 l0 72 l196 0 l0 106 q0 68 -30 103 q-30 35 -82 35 q-112 0 -121 -132 l-81 0 q5 101 57.5 155 q52.5 54 143.5 54 Z" /><glyph glyph-name="uni042E" unicode="&#x42e;" d="M328.5 646.5 q54.5 63.5 151.5 63.5 q97 0 151.5 -63.5 q54.5 -63.5 54.5 -176.5 l0 -240 q0 -113 -54.5 -176.5 q-54.5 -63.5 -151.5 -63.5 q-97 0 -151.5 63.5 q-54.5 63.5 -54.5 176.5 l0 87 l-119 0 l0 -317 l-82 0 l0 700 l82 0 l0 -306 l119 0 l0 76 q0 113 54.5 176.5 ZM602 230 l0 240 q0 160 -122 160 q-122 0 -122 -160 l0 -240 q0 -160 122 -160 q122 0 122 160 Z" /><glyph glyph-name="uni042F" unicode="&#x42f;" d="M22 0 l161 275 q-66 16 -102.5 70.5 q-36.5 54.5 -36.5 135.5 q0 104 54 161.5 q54 57.5 150 57.5 l170 0 l0 -700 l-82 0 l0 265 l-68 0 l-153 -265 l-93 0 ZM247 342 l89 0 l0 281 l-87 0 q-121 0 -121 -140 q0 -68 30.5 -104.5 q30.5 -36.5 88.5 -36.5 Z" /><glyph glyph-name="uni0430" unicode="&#x430;" d="M223 539 q79 0 122.5 -48 q43.5 -48 43.5 -134 l0 -357 l-65 0 l-6 50 q-40 -63 -120 -63 q-73 0 -118.5 44 q-45.5 44 -45.5 119 q0 77 49.5 118.5 q49.5 41.5 136.5 41.5 l90 0 l0 46 q0 107 -89 107 q-39 0 -64 -21 q-25 -21 -28 -60 l-79 0 q3 72 50 114.5 q47 42.5 123 42.5 ZM310 153 l0 87 l-91 0 q-51 0 -78 -23.5 q-27 -23.5 -27 -67.5 q0 -43 26.5 -66 q26.5 -23 72.5 -23 q45 0 71 25.5 q26 25.5 26 67.5 Z" /><glyph glyph-name="uni0431" unicode="&#x431;" d="M257 494 q73 0 117 -50.5 q44 -50.5 44 -140.5 l0 -119 q0 -93 -48 -144 q-48 -51 -131 -51 q-82 0 -129.5 51 q-47.5 51 -47.5 144 l0 286 q0 159 171 211 q41 12 59.5 23.5 q18.5 11.5 35.5 39.5 l60 -46 q-32 -64 -125 -89 q-27 -7 -43.5 -14 q-16.5 -7 -37.5 -21.5 q-21 -14.5 -31.5 -39.5 q-10.5 -25 -10.5 -61 l0 -33 q42 54 117 54 ZM338 184 l0 111 q0 123 -96 123 q-44 0 -72 -28 q-28 -28 -28 -90 l0 -116 q0 -118 97 -118 q99 0 99 118 Z" /><glyph glyph-name="uni0432" unicode="&#x432;" d="M314 279 q41 -15 63 -50 q22 -35 22 -77 q0 -72 -45 -112 q-45 -40 -132 -40 l-160 0 l0 526 l148 0 q78 0 120.5 -38 q42.5 -38 42.5 -105 q0 -64 -59 -104 ZM138 457 l0 -151 l69 0 q43 0 65.5 19.5 q22.5 19.5 22.5 55.5 q0 76 -88 76 l-69 0 ZM223 70 q98 0 98 84 q0 83 -98 83 l-85 0 l0 -167 l85 0 Z" /><glyph glyph-name="uni0433" unicode="&#x433;" d="M330 527 l0 -76 l-189 0 l0 -451 l-79 0 l0 527 l268 0 Z" /><glyph glyph-name="uni0434" unicode="&#x434;" d="M0 -116 l0 189 l39 0 q39 64 49 210 q8 115 10 243 l290 0 l0 -453 l59 0 l0 -189 l-76 0 l0 116 l-295 0 l0 -116 l-76 0 ZM127 73 l183 0 l0 380 l-137 0 q-2 -107 -8 -185 q-11 -127 -38 -195 Z" /><glyph glyph-name="uni0435" unicode="&#x435;" d="M333 163 l78 0 q-6 -83 -54.5 -128.5 q-48.5 -45.5 -132.5 -45.5 q-81 0 -128 51 q-47 51 -47 142 l0 165 q0 91 47.5 141.5 q47.5 50.5 128.5 50.5 q83 0 131 -50.5 q48 -50.5 48 -141.5 l0 -117 l-275 0 l0 -48 q0 -116 97 -116 q50 0 75 23 q25 23 32 74 ZM226 464 q-97 0 -97 -116 l0 -53 l197 0 l0 53 q0 116 -100 116 Z" /><glyph glyph-name="uni0436" unicode="&#x436;" d="M524 0 l-147 238 l-33 -40 l0 -198 l-75 0 l0 199 l-33 39 l-147 -238 l-91 0 l190 298 l-172 228 l94 0 l87 -124 q24 -34 72 -106 l0 230 l75 0 l0 -230 q48 72 72 106 l88 124 l94 0 l-172 -227 l189 -299 l-91 0 Z" /><glyph glyph-name="uni0437" unicode="&#x437;" d="M299 276 q36 -14 60 -47 q24 -33 24 -76 q0 -74 -49.5 -119 q-49.5 -45 -129.5 -45 q-83 0 -132 44.5 q-49 44.5 -52 117.5 l77 0 q3 -40 30.5 -63.5 q27.5 -23.5 76.5 -23.5 q48 0 74.5 24 q26.5 24 26.5 69 q0 38 -26.5 60 q-26.5 22 -75.5 22 l-71 0 l0 65 l68 0 q41 0 65.5 20 q24.5 20 24.5 58 q0 36 -23 58 q-23 22 -64 22 q-89 0 -95 -91 l-77 0 q4 78 48 121 q44 43 123 43 q72 0 118.5 -42 q46.5 -42 46.5 -105 q0 -79 -68 -112 Z" /><glyph glyph-name="uni0438" unicode="&#x438;" d="M62 0 l0 526 l77 0 l0 -260 q0 -84 -2 -132 l2 -2 q23 62 46 114 l134 280 l80 0 l0 -526 l-76 0 l0 242 q0 91 4 155 l-2 1 q-18 -60 -51 -129 l-132 -269 l-80 0 Z" /><glyph glyph-name="uni0439" unicode="&#x439;" d="M232 608 q-53 0 -84 31 q-31 31 -33 87 l60 0 q5 -59 56 -59 q53 0 56 59 l61 0 q-2 -56 -33 -87 q-31 -31 -83 -31 ZM62 0 l0 526 l77 0 l0 -260 q0 -84 -2 -132 l2 -2 q23 62 46 114 l134 280 l80 0 l0 -526 l-76 0 l0 242 q0 91 4 155 l-2 1 q-18 -60 -51 -129 l-132 -269 l-80 0 Z" /><glyph glyph-name="uni043A" unicode="&#x43a;" d="M340 0 l-162 238 l-38 -43 l0 -195 l-78 0 l0 526 l78 0 l0 -232 q9 12 33 45.5 q24 33.5 37 51.5 l101 135 l97 0 l-179 -226 l204 -300 l-93 0 Z" /><glyph glyph-name="uni043B" unicode="&#x43b;" d="M3 -6 l0 76 q39 0 54 41 q15 41 21 124 q10 117 13 291 l289 0 l0 -526 l-78 0 l0 453 l-135 0 q-4 -132 -12 -231 q-8 -117 -43.5 -172.5 q-35.5 -55.5 -108.5 -55.5 Z" /><glyph glyph-name="uni043C" unicode="&#x43c;" d="M406 526 l79 0 l0 -526 l-74 0 l0 248 q0 13 6 142 l-4 2 q-35 -102 -45 -127 l-57 -131 l-75 0 l-57 131 q-21 54 -44 127 l-4 -2 q0 -14 2.5 -63 q2.5 -49 2.5 -79 l0 -248 l-74 0 l0 526 l80 0 l93 -214 q28 -69 37 -96 l3 0 q9 27 37 96 l94 214 Z" /><glyph glyph-name="uni043D" unicode="&#x43d;" d="M313 526 l79 0 l0 -526 l-79 0 l0 234 l-173 0 l0 -234 l-78 0 l0 526 l78 0 l0 -218 l173 0 l0 218 Z" /><glyph glyph-name="uni043E" unicode="&#x43e;" d="M362 39 q-48 -51 -132 -51 q-84 0 -132.5 51 q-48.5 51 -48.5 144 l0 161 q0 93 48.5 144 q48.5 51 132.5 51 q84 0 132 -51 q48 -51 48 -144 l0 -161 q0 -93 -48 -144 ZM129 183 q0 -119 101 -119 q101 0 101 119 l0 161 q0 118 -101 118 q-101 0 -101 -118 l0 -161 Z" /><glyph glyph-name="uni043F" unicode="&#x43f;" d="M392 526 l0 -526 l-79 0 l0 453 l-173 0 l0 -453 l-78 0 l0 526 l330 0 Z" /><glyph glyph-name="uni0440" unicode="&#x440;" d="M250 538 q75 0 120.5 -53.5 q45.5 -53.5 45.5 -149.5 l0 -147 q0 -96 -44.5 -148 q-44.5 -52 -121.5 -52 q-67 0 -111 50 l0 -218 l-77 0 l0 707 l59 0 l8 -49 q45 60 121 60 ZM336 188 l0 147 q0 130 -100 130 q-43 0 -70 -33 q-27 -33 -27 -95 l0 -149 q0 -57 26 -91.5 q26 -34.5 71 -34.5 q100 0 100 126 Z" /><glyph glyph-name="uni0441" unicode="&#x441;" d="M223 -11 q-80 0 -127 50.5 q-47 50.5 -47 140.5 l0 169 q0 90 47 140 q47 50 127 50 q82 0 128.5 -49.5 q46.5 -49.5 49.5 -140.5 l-80 0 q-3 114 -98 114 q-94 0 -94 -114 l0 -169 q0 -114 94 -114 q96 0 100 114 l79 0 q-2 -91 -49.5 -141 q-47.5 -50 -129.5 -50 Z" /><glyph glyph-name="uni0442" unicode="&#x442;" d="M339 526 l0 -73 l-125 0 l0 -453 l-78 0 l0 453 l-125 0 l0 73 l328 0 Z" /><glyph glyph-name="uni0443" unicode="&#x443;" d="M315 526 l81 0 l-172 -578 q-20 -68 -50 -103 q-30 -35 -84 -35 l-43 0 l0 76 l30 0 q29 0 44 18.5 q15 18.5 26 56.5 l28 93 l-169 472 l83 0 l120 -357 l106 357 Z" /><glyph glyph-name="uni0444" unicode="&#x444;" d="M371 534 q87 0 142.5 -55 q55.5 -55 55.5 -152 l0 -128 q0 -96 -55.5 -151 q-55.5 -55 -142.5 -55 l-23 0 l0 -173 l-77 0 l0 173 l-23 0 q-87 0 -143 55 q-56 55 -56 151 l0 128 q0 97 55.5 152 q55.5 55 143.5 55 l23 0 l0 187 l77 0 l0 -187 l23 0 ZM248 69 l23 0 l0 389 l-23 0 q-53 0 -86 -33.5 q-33 -33.5 -33 -97.5 l0 -128 q0 -63 33 -96.5 q33 -33.5 86 -33.5 ZM490 199 l0 128 q0 64 -33 97.5 q-33 33.5 -86 33.5 l-23 0 l0 -389 l23 0 q52 0 85.5 33.5 q33.5 33.5 33.5 96.5 Z" /><glyph glyph-name="uni0445" unicode="&#x445;" d="M392 0 l-90 0 l-105 201 l-105 -201 l-90 0 l148 263 l-139 263 l88 0 l98 -193 l99 193 l87 0 l-138 -263 l147 -263 Z" /><glyph glyph-name="uni0446" unicode="&#x446;" d="M372 -116 l0 116 l-310 0 l0 526 l78 0 l0 -453 l170 0 l0 453 l79 0 l0 -453 l59 0 l0 -189 l-76 0 Z" /><glyph glyph-name="uni0447" unicode="&#x447;" d="M291 526 l76 0 l0 -526 l-76 0 l0 191 q-39 -20 -97 -20 q-72 0 -117.5 53 q-45.5 53 -45.5 156 l0 146 l76 0 l0 -146 q0 -134 94 -134 q58 0 90 20 l0 260 Z" /><glyph glyph-name="uni0448" unicode="&#x448;" d="M544 526 l78 0 l0 -526 l-566 0 l0 526 l78 0 l0 -453 l166 0 l0 453 l78 0 l0 -453 l166 0 l0 453 Z" /><glyph glyph-name="uni0449" unicode="&#x449;" d="M628 72 l57 0 l0 -188 l-74 0 l0 116 l-549 0 l0 526 l78 0 l0 -453 l166 0 l0 453 l78 0 l0 -453 l166 0 l0 453 l78 0 l0 -454 Z" /><glyph glyph-name="uni044A" unicode="&#x44a;" d="M284 345 q74 0 123.5 -48 q49.5 -48 49.5 -123 q0 -76 -49.5 -125 q-49.5 -49 -123.5 -49 l-167 0 l0 454 l-106 0 l0 72 l184 0 l0 -181 l89 0 ZM279 73 q43 0 71 27.5 q28 27.5 28 73.5 q0 44 -28 71 q-28 27 -71 27 l-84 0 l0 -199 l84 0 Z" /><glyph glyph-name="uni044B" unicode="&#x44b;" d="M230 338 q74 0 123.5 -47 q49.5 -47 49.5 -121 q0 -74 -49.5 -122 q-49.5 -48 -123.5 -48 l-168 0 l0 523 l78 0 l0 -185 l90 0 ZM475 523 l78 0 l0 -523 l-78 0 l0 523 ZM225 73 q43 0 70.5 27 q27.5 27 27.5 71 q0 43 -27.5 68.5 q-27.5 25.5 -70.5 25.5 l-85 0 l0 -192 l85 0 Z" /><glyph glyph-name="uni044C" unicode="&#x44c;" d="M230 345 q74 0 123.5 -48 q49.5 -48 49.5 -123 q0 -76 -49.5 -125 q-49.5 -49 -123.5 -49 l-168 0 l0 526 l78 0 l0 -181 l90 0 ZM225 73 q43 0 70.5 27.5 q27.5 27.5 27.5 73.5 q0 44 -27.5 71 q-27.5 27 -70.5 27 l-85 0 l0 -199 l85 0 Z" /><glyph glyph-name="uni044D" unicode="&#x44d;" d="M212 539 q80 0 127 -50 q47 -50 47 -140 l0 -169 q0 -90 -47 -140.5 q-47 -50.5 -127 -50.5 q-82 0 -129.5 49.5 q-47.5 49.5 -49.5 138.5 l79 0 q4 -111 100 -111 q94 0 94 114 l0 55 l-169 0 l0 62 l169 0 l0 52 q0 114 -94 114 q-95 0 -98 -112 l-80 0 q3 90 49.5 139 q46.5 49 128.5 49 Z" /><glyph glyph-name="uni044E" unicode="&#x44e;" d="M271.5 488 q46.5 51 127.5 51 q81 0 128 -51 q47 -51 47 -144 l0 -160 q0 -93 -47 -144 q-47 -51 -128 -51 q-81 0 -127.5 51 q-46.5 51 -46.5 144 l0 48 l-86 0 l0 -232 l-77 0 l0 526 l77 0 l0 -220 l86 0 l0 38 q0 93 46.5 144 ZM495 184 l0 160 q0 118 -96 118 q-96 0 -96 -118 l0 -160 q0 -118 96 -118 q96 0 96 118 Z" /><glyph glyph-name="uni044F" unicode="&#x44f;" d="M200 526 l153 0 l0 -526 l-76 0 l0 185 l-69 0 l-107 -185 l-91 0 l120 193 q-46 14 -74 57 q-28 43 -28 107 q0 77 47 123 q47 46 125 46 ZM277 254 l0 199 l-75 0 q-46 0 -71 -25.5 q-25 -25.5 -25 -72.5 q0 -101 92 -101 l79 0 Z" /><glyph glyph-name="uni0451" unicode="&#x451;" d="M188.5 635 q-12.5 -12 -32.5 -12 q-20 0 -32.5 12 q-12.5 12 -12.5 33 q0 20 12.5 32 q12.5 12 32.5 12 q20 0 32.5 -12 q12.5 -12 12.5 -32 q0 -21 -12.5 -33 ZM318.5 635 q-12.5 -12 -33.5 -12 q-21 0 -33.5 12 q-12.5 12 -12.5 33 q0 20 13 32 q13 12 33 12 q21 0 33.5 -12 q12.5 -12 12.5 -32 q0 -21 -12.5 -33 ZM333 163 l78 0 q-6 -83 -54.5 -128.5 q-48.5 -45.5 -132.5 -45.5 q-81 0 -128 51 q-47 51 -47 142 l0 165 q0 91 47.5 141.5 q47.5 50.5 128.5 50.5 q83 0 131 -50.5 q48 -50.5 48 -141.5 l0 -117 l-275 0 l0 -48 q0 -116 97 -116 q50 0 75 23 q25 23 32 74 ZM226 464 q-97 0 -97 -116 l0 -53 l197 0 l0 53 q0 116 -100 116 Z" /><glyph glyph-name="uni0452" unicode="&#x452;" d="M268 539 q144 0 144 -220 l0 -347 q0 -82 -45.5 -128 q-45.5 -46 -134.5 -46 l0 75 q53 1 77 25 q24 24 24 72 l0 345 q0 79 -20.5 114 q-20.5 35 -64.5 35 q-48 0 -76.5 -37.5 q-28.5 -37.5 -28.5 -104.5 l0 -322 l-79 0 l0 612 l-63 0 l0 51 l63 0 l0 61 l79 0 l0 -61 l95 0 l0 -51 l-95 0 l0 -144 q43 71 125 71 Z" /><glyph glyph-name="uni0453" unicode="&#x453;" d="M292 729 l-89 -119 l-67 0 l75 119 l81 0 ZM330 527 l0 -76 l-189 0 l0 -451 l-79 0 l0 527 l268 0 Z" /><glyph glyph-name="uni0454" unicode="&#x454;" d="M323 177 l79 0 q-2 -89 -49.5 -138.5 q-47.5 -49.5 -129.5 -49.5 q-80 0 -127 50.5 q-47 50.5 -47 140.5 l0 169 q0 90 47 140 q47 50 127 50 q82 0 128.5 -49 q46.5 -49 49.5 -139 l-80 0 q-3 112 -98 112 q-94 0 -94 -114 l0 -52 l169 0 l0 -62 l-169 0 l0 -55 q0 -114 94 -114 q96 0 100 111 Z" /><glyph glyph-name="uni0455" unicode="&#x455;" d="M210 -13 q-83 0 -132 48 q-49 48 -50 124 l78 0 q1 -45 27.5 -71 q26.5 -26 75.5 -26 q43 0 67 20.5 q24 20.5 24 56.5 q0 32 -27.5 53.5 q-27.5 21.5 -66 36 q-38.5 14.5 -77.5 31.5 q-39 17 -66.5 50.5 q-27.5 33.5 -27.5 83.5 q0 66 45 105.5 q45 39.5 120 39.5 q78 0 122.5 -45 q44.5 -45 46.5 -120 l-77 0 q-1 43 -24.5 67.5 q-23.5 24.5 -67.5 24.5 q-40 0 -63 -19.5 q-23 -19.5 -23 -53.5 q0 -30 27.5 -50.5 q27.5 -20.5 66 -34 q38.5 -13.5 77.5 -31 q39 -17.5 66.5 -52.5 q27.5 -35 27.5 -87 q0 -68 -46 -109.5 q-46 -41.5 -123 -41.5 Z" /><glyph glyph-name="uni0456" unicode="&#x456;" d="M101 619 q-25 0 -40 15 q-15 15 -15 39 q0 25 15 40 q15 15 40 15 q24 0 39.5 -15 q15.5 -15 15.5 -40 q0 -23 -15.5 -38.5 q-15.5 -15.5 -39.5 -15.5 ZM62 0 l0 526 l79 0 l0 -526 l-79 0 Z" /><glyph glyph-name="uni0457" unicode="&#x457;" d="M79.5 639.5 q-11.5 -11.5 -31.5 -11.5 q-20 0 -32 11.5 q-12 11.5 -12 31.5 q0 20 12 32 q12 12 32 12 q20 0 31.5 -12 q11.5 -12 11.5 -32 q0 -20 -11.5 -31.5 ZM201 639.5 q-12 -11.5 -32 -11.5 q-20 0 -32.5 11.5 q-12.5 11.5 -12.5 31.5 q0 20 12.5 32 q12.5 12 32.5 12 q20 0 32 -12 q12 -12 12 -32 q0 -20 -12 -31.5 ZM69 0 l0 526 l78 0 l0 -526 l-78 0 Z" /><glyph glyph-name="uni0458" unicode="&#x458;" d="M123 618 q-25 0 -40 15 q-15 15 -15 39 q0 25 15 40 q15 15 40 15 q24 0 39.5 -15 q15.5 -15 15.5 -40 q0 -23 -15.5 -38.5 q-15.5 -15.5 -39.5 -15.5 ZM-17 -193 l0 76 q54 1 77.5 28.5 q23.5 27.5 23.5 83.5 l0 531 l78 0 l0 -529 q0 -90 -44.5 -139.5 q-44.5 -49.5 -134.5 -50.5 Z" /><glyph glyph-name="uni0459" unicode="&#x459;" d="M3 -6 l0 76 q39 0 54.5 41.5 q15.5 41.5 20.5 123.5 q10 117 13 291 l289 0 l0 -188 l89 0 q74 0 123.5 -47 q49.5 -47 49.5 -121 q0 -74 -49.5 -122 q-49.5 -48 -123.5 -48 l-167 0 l0 453 l-135 0 q-4 -132 -12 -231 q-8 -116 -43.5 -172 q-35.5 -56 -108.5 -56 ZM380 73 l84 0 q43 0 71 27 q28 27 28 71 q0 43 -28 68.5 q-28 25.5 -71 25.5 l-84 0 l0 -192 Z" /><glyph glyph-name="uni045A" unicode="&#x45a;" d="M479 321 q74 0 123.5 -44 q49.5 -44 49.5 -112 q0 -72 -49.5 -118.5 q-49.5 -46.5 -123.5 -46.5 l-167 0 l0 247 l-172 0 l0 -247 l-78 0 l0 526 l78 0 l0 -205 l172 0 l0 205 l78 0 l0 -205 l89 0 ZM475 73 q43 0 70 25.5 q27 25.5 27 66.5 q0 38 -27 60.5 q-27 22.5 -70 22.5 l-85 0 l0 -175 l85 0 Z" /><glyph glyph-name="uni045B" unicode="&#x45b;" d="M264 539 q144 0 144 -220 l0 -319 l-79 0 l0 315 q0 79 -20.5 114 q-20.5 35 -64.5 35 q-48 0 -76.5 -37.5 q-28.5 -37.5 -28.5 -104.5 l0 -322 l-79 0 l0 607 l-64 0 l0 51 l64 0 l0 66 l79 0 l0 -66 l95 0 l0 -51 l-95 0 l0 -139 q45 71 125 71 Z" /><glyph glyph-name="uni045C" unicode="&#x45c;" d="M313 729 l-89 -119 l-67 0 l75 119 l81 0 ZM340 0 l-162 238 l-38 -43 l0 -195 l-78 0 l0 526 l78 0 l0 -232 q9 12 33 45.5 q24 33.5 37 51.5 l101 135 l97 0 l-179 -226 l204 -300 l-93 0 Z" /><glyph glyph-name="uni045D" unicode="&#x45d;" d="M132 729 l81 0 l75 -119 l-67 0 l-89 119 ZM62 0 l0 526 l77 0 l0 -260 q0 -84 -2 -132 l2 -2 q23 62 46 114 l134 280 l80 0 l0 -526 l-76 0 l0 242 q0 91 4 155 l-2 1 q-18 -60 -51 -129 l-132 -269 l-80 0 Z" /><glyph glyph-name="uni045E" unicode="&#x45e;" d="M199 609 q-53 0 -84 31 q-31 31 -33 87 l60 0 q5 -59 56 -59 q53 0 56 59 l61 0 q-2 -56 -33 -87 q-31 -31 -83 -31 ZM315 526 l81 0 l-172 -578 q-20 -68 -50 -103 q-30 -35 -84 -35 l-43 0 l0 76 l30 0 q29 0 44 18.5 q15 18.5 26 56.5 l28 93 l-169 472 l83 0 l120 -357 l106 357 Z" /><glyph glyph-name="uni045F" unicode="&#x45f;" d="M392 526 l0 -526 l-126 0 l0 -116 l-74 0 l0 116 l-130 0 l0 526 l78 0 l0 -453 l173 0 l0 453 l79 0 Z" /><glyph glyph-name="uni0490" unicode="&#x490;" d="M329 808 l72 0 l0 -185 l-246 0 l0 -623 l-82 0 l0 700 l256 0 l0 108 Z" /><glyph glyph-name="uni0491" unicode="&#x491;" d="M261 626 l69 0 l0 -175 l-189 0 l0 -451 l-79 0 l0 526 l199 0 l0 100 Z" /></font>
</defs>
</svg>
