<?xml version="1.0" standalone="no"?><!DOCTYPE svg PUBLIC "-//W3C//DTD SVG 1.1//EN" "http://www.w3.org/Graphics/SVG/1.1/DTD/svg11.dtd" ><svg xmlns="http://www.w3.org/2000/svg"><metadata></metadata><defs><font id="1.000;FBRC;Akrobat-Thin" horiz-adv-x="795"><font-face font-family="Akrobat Thin" font-weight="250" font-stretch="normal" units-per-em="1000" panose-1="0 0 3 0 0 0 0 0 0 0" ascent="1000" descent="-200" x-height="0" bbox="-30 -200 751 875" underline-thickness="50" underline-position="-75" unicode-range="U+0020-0491" /><missing-glyph horiz-adv-x="500" d="M410 800 l0 -1000 l-317 0 l0 1000 l317 0 ZM333 733 l-165 0 l0 -33 l65 0 l0 -37 l-66 0 l0 -33 l166 0 l0 33 l-66 0 l0 37 l66 0 l0 33 ZM267 604 l-100 0 l0 -104 l166 0 l0 34 l-66 0 l0 70 ZM233 570 l0 -36 l-33 0 l0 36 l33 0 ZM333 473 l-166 0 l0 -33 l66 0 l0 -37 l-66 0 l0 -33 l100 0 l0 70 l66 0 l0 33 ZM333 413 l-33 0 l0 -66 l-133 0 l0 -34 l166 0 l0 100 ZM333 291 l-100 0 l0 -56 l34 0 l0 23 l33 0 l0 -47 l-100 0 l0 80 l-33 0 l0 -113 l166 0 l0 113 ZM333 118 l-166 0 l0 -113 l166 0 l0 113 ZM300 85 l0 -47 l-100 0 l0 47 l100 0 ZM333 -18 l-166 0 l0 -33 l70 0 l-70 -47 l0 -33 l166 0 l0 33 l-102 0 l70 47 l32 0 l0 33 Z" /><glyph glyph-name="space" unicode=" " d="" /><glyph glyph-name="exclam" unicode="!" d="M84 115 l0 585 l20 0 l0 -585 l-20 0 ZM118 17 q0 -24 -24 -24 q-24 0 -24 24 q0 24 24 24 q24 0 24 -24 Z" /><glyph glyph-name="quotedbl" unicode="&quot;" d="M42 700 l32 0 l-33 -170 l-17 0 l18 170 ZM122 700 l32 0 l-33 -170 l-17 0 l18 170 Z" /><glyph glyph-name="numbersign" unicode="#" d="M98 0 l43 189 l-120 0 l5 19 l120 0 l62 273 l-120 0 l4 19 l120 0 l46 200 l20 0 l-46 -200 l146 0 l46 200 l20 0 l-46 -200 l120 0 l-4 -19 l-120 0 l-62 -273 l120 0 l-5 -19 l-120 0 l-43 -189 l-20 0 l43 189 l-146 0 l-43 -189 l-20 0 ZM166 208 l146 0 l62 273 l-146 0 l-62 -273 Z" /><glyph glyph-name="dollar" unicode="$" d="M375 149 q0 -67 -43.5 -112.5 q-43.5 -45.5 -114.5 -47.5 l0 -74 l-18 0 l0 74 q-68 4 -108.5 49.5 q-40.5 45.5 -46.5 117.5 l20 0 q8 -68 45 -108 q37 -40 101 -40 q67 0 106 40 q39 40 39 101 q0 39 -17 73 q-17 34 -44 58.5 q-27 24.5 -59.5 47 q-32.5 22.5 -65 45.5 q-32.5 23 -59.5 47.5 q-27 24.5 -44 58 q-17 33.5 -17 72.5 q0 68 42 112 q42 44 108 48 l0 74 l18 0 l0 -74 q65 -2 106 -47 q41 -45 47 -119 l-20 0 q-8 71 -44 109 q-36 38 -96 38 q-62 0 -101.5 -38.5 q-39.5 -38.5 -39.5 -102.5 q0 -36 17 -67.5 q17 -31.5 44 -55 q27 -23.5 59.5 -46 q32.5 -22.5 65 -46 q32.5 -23.5 59.5 -49 q27 -25.5 44 -61 q17 -35.5 17 -77.5 Z" /><glyph glyph-name="percent" unicode="%" d="M116 398 q-36 0 -57.5 24 q-21.5 24 -21.5 59 l0 143 q0 35 21.5 59 q21.5 24 57.5 24 q38 0 59 -23.5 q21 -23.5 21 -59.5 l0 -143 q0 -36 -21 -59.5 q-21 -23.5 -59 -23.5 ZM40 0 l505 700 l20 0 l-505 -700 l-20 0 ZM116 415 q30 0 46 18.5 q16 18.5 16 47.5 l0 143 q0 29 -16 47.5 q-16 18.5 -46 18.5 q-29 0 -45.5 -19 q-16.5 -19 -16.5 -47 l0 -143 q0 -28 16.5 -47 q16.5 -19 45.5 -19 ZM489 -7 q-36 0 -57.5 24 q-21.5 24 -21.5 59 l0 143 q0 35 21.5 59 q21.5 24 57.5 24 q38 0 59 -23.5 q21 -23.5 21 -59.5 l0 -143 q0 -36 -21 -59.5 q-21 -23.5 -59 -23.5 ZM489 10 q30 0 46 18.5 q16 18.5 16 47.5 l0 143 q0 29 -16 47.5 q-16 18.5 -46 18.5 q-29 0 -45.5 -19 q-16.5 -19 -16.5 -47 l0 -143 q0 -28 16.5 -47 q16.5 -19 45.5 -19 Z" /><glyph glyph-name="ampersand" unicode="&amp;" d="M518 0 l-27 0 q-43 61 -71 99 q-72 -110 -165 -110 q-76 0 -122 47 q-46 47 -46 124 q0 64 36.5 113 q36.5 49 104.5 105 q-85 137 -85 197 q-1 60 32.5 98 q33.5 38 94.5 38 q58 0 94 -37 q36 -37 36 -98 q0 -30 -10.5 -57 q-10.5 -27 -36.5 -55 q-26 -28 -43 -43.5 q-17 -15.5 -55 -46.5 q50 -78 166 -238 q33 61 49 137 l18 -6 q-19 -83 -55 -148 q68 -95 85 -119 ZM163 575 q0 -57 81 -184 q35 29 52.5 44 q17.5 15 41 41 q23.5 26 33.5 50.5 q10 24.5 10 51.5 q0 51 -30.5 82.5 q-30.5 31.5 -80.5 31.5 q-52 0 -80 -32.5 q-28 -32.5 -27 -84.5 ZM253 9 q89 0 156 106 q-122 170 -170 246 q-64 -53 -98 -98 q-34 -45 -34 -102 q0 -68 40 -110 q40 -42 106 -42 Z" /><glyph glyph-name="quotesingle" unicode="&#39;" d="M42 700 l32 0 l-33 -170 l-17 0 l18 170 Z" /><glyph glyph-name="parenleft" unicode="(" d="M195 -120 q-50 0 -79 34.5 q-29 34.5 -29 92.5 l0 687 q0 58 28.5 92 q28.5 34 79.5 34 l0 -19 q-43 -1 -65.5 -29 q-22.5 -28 -22.5 -78 l0 -687 q0 -50 23 -79 q23 -29 65 -29 l0 -19 Z" /><glyph glyph-name="parenright" unicode=")" d="M62 -120 l0 19 q42 0 65 29 q23 29 23 79 l0 687 q0 50 -22.5 78 q-22.5 28 -65.5 29 l0 19 q51 0 79.5 -34 q28.5 -34 28.5 -92 l0 -687 q0 -58 -29 -92.5 q-29 -34.5 -79 -34.5 Z" /><glyph glyph-name="asterisk" unicode="*" d="M82 508 l-16 11 l59 81 l-95 31 l6 18 l95 -31 l0 100 l19 0 l0 -100 l95 31 l6 -18 l-95 -31 l59 -81 l-16 -11 l-59 81 l-58 -81 Z" /><glyph glyph-name="plus" unicode="+" d="M361 317 l0 -18 l-145 0 l0 -145 l-18 0 l0 145 l-144 0 l0 18 l144 0 l0 146 l18 0 l0 -146 l145 0 Z" /><glyph glyph-name="comma" unicode="," d="M53 49 l32 0 l-33 -170 l-17 0 l18 170 Z" /><glyph glyph-name="hyphen" unicode="-" d="M50 246 l0 19 l235 0 l0 -19 l-235 0 Z" /><glyph glyph-name="period" unicode="." d="M106 17 q0 -24 -24 -24 q-24 0 -24 24 q0 24 24 24 q24 0 24 -24 Z" /><glyph glyph-name="slash" unicode="/" d="M330 803 l21 0 l-315 -912 l-21 0 l315 912 Z" /><glyph glyph-name="zero" unicode="0" d="M333 34.5 q-45 -45.5 -110 -45.5 q-65 0 -110 45.5 q-45 45.5 -45 113.5 l0 404 q0 68 45 113.5 q45 45.5 110 45.5 q65 0 110 -45.5 q45 -45.5 45 -113.5 l0 -404 q0 -68 -45 -113.5 ZM127 47.5 q39 -39.5 96 -39.5 q57 0 96 39.5 q39 39.5 39 100.5 l0 404 q0 61 -39 100.5 q-39 39.5 -96 39.5 q-57 0 -96 -39.5 q-39 -39.5 -39 -100.5 l0 -404 q0 -61 39 -100.5 Z" /><glyph glyph-name="one" unicode="1" d="M161 700 l12 0 l0 -700 l-20 0 l0 670 l-119 -95 l0 22 l127 103 Z" /><glyph glyph-name="two" unicode="2" d="M36 0 l0 20 q0 55 29 113 q29 58 70.5 107.5 q41.5 49.5 83 99 q41.5 49.5 70.5 105.5 q29 56 29 108 q0 61 -38 99 q-38 38 -95 36 q-54 0 -89 -39.5 q-35 -39.5 -38 -103.5 l-20 0 q5 72 45.5 117 q40.5 45 101.5 45 q66 2 109.5 -42 q43.5 -44 43.5 -112 q0 -56 -29 -113.5 q-29 -57.5 -70.5 -107 q-41.5 -49.5 -83 -98.5 q-41.5 -49 -70.5 -105 q-29 -56 -29 -109 l284 0 l0 -20 l-304 0 Z" /><glyph glyph-name="three" unicode="3" d="M170 414 q67 0 111.5 -44.5 q44.5 -44.5 44.5 -117.5 l0 -79 q0 -84 -42 -132 q-42 -48 -112 -48 q-64 0 -106.5 45.5 q-42.5 45.5 -42.5 117.5 l20 0 q1 -65 37.5 -104.5 q36.5 -39.5 91.5 -39.5 q62 0 98 42 q36 42 36 119 l0 79 q0 65 -38.5 104 q-38.5 39 -97.5 39 l-44 0 l0 14 l170 272 l-260 0 l0 19 l286 0 l0 -12 l-169 -274 l17 0 Z" /><glyph glyph-name="four" unicode="4" d="M365 230 l0 -19 l-83 0 l0 -211 l-20 0 l0 211 l-245 0 l0 17 l170 472 l19 0 l-168 -470 l224 0 l0 258 l20 0 l0 -258 l83 0 Z" /><glyph glyph-name="five" unicode="5" d="M212 470 q64 0 106.5 -47 q42.5 -47 42.5 -123 l0 -140 q0 -76 -43.5 -123 q-43.5 -47 -107.5 -47 q-64 0 -108 46.5 q-44 46.5 -44 120.5 l20 0 q0 -66 38 -107 q38 -41 94 -41 q56 0 93.5 41.5 q37.5 41.5 37.5 109.5 l0 140 q0 68 -36.5 109.5 q-36.5 41.5 -91.5 41.5 q-96 0 -131 -102 l-21 0 l0 351 l290 0 l0 -20 l-270 0 l0 -288 q18 36 52.5 57 q34.5 21 78.5 21 Z" /><glyph glyph-name="six" unicode="6" d="M221 466 q65 0 109 -47 q44 -47 44 -122 l0 -134 q0 -76 -44 -123 q-44 -47 -109 -47 q-64 0 -108.5 44 q-44.5 44 -44.5 106 l0 399 q0 76 43 122.5 q43 46.5 109 46.5 q62 0 105 -44.5 q43 -44.5 44 -115.5 l-20 0 q-3 64 -39 102.5 q-36 38.5 -90 38.5 q-58 0 -95 -41 q-37 -41 -37 -109 l0 -158 q17 37 52.5 59.5 q35.5 22.5 80.5 22.5 ZM354 163 l0 134 q0 68 -38 109 q-38 41 -95 41 q-55 0 -94 -38 q-39 -38 -39 -92 l0 -174 q0 -55 38.5 -93 q38.5 -38 94.5 -38 q57 0 95 41.5 q38 41.5 38 109.5 Z" /><glyph glyph-name="seven" unicode="7" d="M14 700 l301 0 l0 -18 l-188 -682 l-20 0 l187 681 l-280 0 l0 19 Z" /><glyph glyph-name="eight" unicode="8" d="M274 360 q47 -15 75.5 -59 q28.5 -44 28.5 -100 l0 -38 q0 -76 -44 -123 q-44 -47 -115 -47 q-71 0 -115 47 q-44 47 -44 123 l0 38 q0 56 28.5 100 q28.5 44 75.5 59 q-42 16 -67.5 59.5 q-25.5 43.5 -25.5 101.5 l0 20 q0 75 40.5 120.5 q40.5 45.5 107.5 45.5 q67 0 107.5 -45.5 q40.5 -45.5 40.5 -120.5 l0 -20 q0 -58 -25.5 -101.5 q-25.5 -43.5 -67.5 -59.5 ZM91 521 q0 -68 35 -109.5 q35 -41.5 93 -41.5 q58 0 93 41.5 q35 41.5 35 109.5 l0 20 q0 66 -35 106.5 q-35 40.5 -93 40.5 q-58 0 -93 -40.5 q-35 -40.5 -35 -106.5 l0 -20 ZM358 163 l0 38 q0 67 -38.5 108.5 q-38.5 41.5 -100.5 41.5 q-62 0 -100.5 -41.5 q-38.5 -41.5 -38.5 -108.5 l0 -38 q0 -68 38.5 -109.5 q38.5 -41.5 100.5 -41.5 q62 0 100.5 41.5 q38.5 41.5 38.5 109.5 Z" /><glyph glyph-name="nine" unicode="9" d="M206 707 q64 0 108.5 -44 q44.5 -44 44.5 -106 l0 -399 q0 -76 -43 -122.5 q-43 -46.5 -109 -46.5 q-62 0 -105 44.5 q-43 44.5 -44 115.5 l20 0 q3 -64 39 -102.5 q36 -38.5 90 -38.5 q58 0 95 41 q37 41 37 109 l0 158 q-17 -37 -52.5 -59.5 q-35.5 -22.5 -80.5 -22.5 q-65 0 -109 47 q-44 47 -44 122 l0 134 q0 76 44 123 q44 47 109 47 ZM206 253 q55 0 94 38 q39 38 39 92 l0 174 q0 55 -38.5 93 q-38.5 38 -94.5 38 q-57 0 -95 -41.5 q-38 -41.5 -38 -109.5 l0 -134 q0 -68 38 -109 q38 -41 95 -41 Z" /><glyph glyph-name="colon" unicode=":" d="M118 368 q0 -24 -24 -24 q-24 0 -24 24 q0 24 24 24 q24 0 24 -24 ZM118 17 q0 -24 -24 -24 q-24 0 -24 24 q0 24 24 24 q24 0 24 -24 Z" /><glyph glyph-name="semicolon" unicode=";" d="M90 367 q0 -24 -24 -24 q-24 0 -24 24 q0 24 24 24 q24 0 24 -24 ZM53 49 l32 0 l-33 -170 l-17 0 l18 170 Z" /><glyph glyph-name="less" unicode="&lt;" d="M307 459 l0 -21 l-235 -129 l235 -129 l0 -21 l-253 139 l0 22 l253 139 Z" /><glyph glyph-name="equal" unicode="=" d="M54 349 l0 18 l307 0 l0 -18 l-307 0 ZM54 249 l0 18 l307 0 l0 -18 l-307 0 Z" /><glyph glyph-name="greater" unicode="&gt;" d="M54 459 l253 -139 l0 -22 l-253 -139 l0 21 l235 129 l-235 129 l0 21 Z" /><glyph glyph-name="question" unicode="?" d="M160 115 l0 77 q0 59 22 109 q22 50 48 80 q26 30 48 76 q22 46 22 98 q0 59 -37 96 q-37 37 -93 37 q-56 0 -93 -39.5 q-37 -39.5 -37 -103.5 l-20 0 q1 71 44 116.5 q43 45.5 106 45.5 q65 0 107.5 -43 q42.5 -43 42.5 -109 q0 -53 -22 -100 q-22 -47 -48 -77.5 q-26 -30.5 -48 -79.5 q-22 -49 -22 -106 l0 -77 l-20 0 ZM196 17 q0 -24 -24 -24 q-24 0 -24 24 q0 24 24 24 q24 0 24 -24 Z" /><glyph glyph-name="at" unicode="@" d="M358 710 q137 0 212.5 -77.5 q75.5 -77.5 75.5 -220.5 l0 -108 q0 -157 -102 -157 q-68 0 -83 68 q-32 -68 -104 -68 q-54 0 -91 39 q-37 39 -37 99 l0 100 q0 61 33.5 98 q33.5 37 89.5 37 q71 0 105 -55 l0 50 l19 0 l0 -258 q0 -91 68 -91 q83 0 83 138 l0 108 q0 136 -70 208 q-70 72 -199 72 q-134 0 -205.5 -76 q-71.5 -76 -71.5 -216 l0 -131 q0 -135 77 -215 q77 -80 200 -80 q123 0 188 56 l10 -14 q-71 -60 -198 -60 q-131 0 -213.5 85 q-82.5 85 -82.5 228 l0 131 q0 146 77 228 q77 82 219 82 ZM355 165 q39 0 70.5 28.5 q31.5 28.5 31.5 84.5 l0 124 q0 46 -32.5 73 q-32.5 27 -75.5 27 q-46 0 -73.5 -32 q-27.5 -32 -27.5 -85 l0 -100 q0 -52 32 -86 q32 -34 75 -34 Z" /><glyph glyph-name="A" unicode="a" d="M394 0 l-54 203 l-250 0 l-54 -203 l-21 0 l188 700 l24 0 l188 -700 l-21 0 ZM95 222 l240 0 l-75 282 l-45 170 q-7 -28 -22 -84.5 q-15 -56.5 -23 -85.5 l-75 -282 Z" /><glyph glyph-name="B" unicode="b" d="M288 364 q140 -26 140 -175 q0 -90 -52 -139.5 q-52 -49.5 -143 -49.5 l-146 0 l0 700 l140 0 q81 0 126.5 -46 q45.5 -46 45.5 -129 q0 -59 -26.5 -102.5 q-26.5 -43.5 -84.5 -58.5 ZM227 681 l-120 0 l0 -308 l128 0 q72 0 108 43 q36 43 36 109 q0 75 -40 115.5 q-40 40.5 -112 40.5 ZM233 19 q83 0 129 44 q46 44 46 126 q0 71 -44 118 q-44 47 -129 47 l-128 0 l0 -335 l126 0 Z" /><glyph glyph-name="C" unicode="c" d="M239 -12 q-80 0 -125.5 52 q-45.5 52 -45.5 152 l0 315 q0 101 45.5 153 q45.5 52 125.5 52 q165 0 180 -187 l-20 0 q-15 168 -160 168 q-71 0 -111 -47 q-40 -47 -40 -139 l0 -315 q0 -92 40 -138.5 q40 -46.5 111 -46.5 q152 0 164 168 l20 0 q-12 -187 -184 -187 Z" /><glyph glyph-name="D" unicode="d" d="M87 0 l0 700 l147 0 q86 0 133 -49 q47 -49 47 -144 l0 -300 q0 -99 -47.5 -153 q-47.5 -54 -132.5 -54 l-147 0 ZM107 19 l127 0 q77 0 118.5 48.5 q41.5 48.5 41.5 139.5 l0 300 q0 174 -160 174 l-127 0 l0 -662 Z" /><glyph glyph-name="E" unicode="e" d="M390 681 l-283 0 l0 -315 l261 0 l0 -19 l-261 0 l0 -328 l283 0 l0 -19 l-303 0 l0 700 l303 0 l0 -19 Z" /><glyph glyph-name="F" unicode="f" d="M384 681 l-277 0 l0 -327 l257 0 l0 -19 l-257 0 l0 -335 l-20 0 l0 700 l297 0 l0 -19 Z" /><glyph glyph-name="G" unicode="g" d="M243 -10 q-76 0 -125.5 51 q-49.5 51 -49.5 144 l0 322 q0 99 48.5 151 q48.5 52 124.5 52 q77 0 125.5 -47 q48.5 -47 49.5 -138 l-20 0 q-3 84 -45 125 q-42 41 -110 41 q-67 0 -110 -46.5 q-43 -46.5 -43 -137.5 l0 -322 q0 -84 44 -130 q44 -46 111 -46 q69 0 114 46 q45 46 45 130 l0 155 l-162 0 l0 19 l182 0 l0 -174 q0 -92 -51 -143.5 q-51 -51.5 -128 -51.5 Z" /><glyph glyph-name="H" unicode="h" d="M406 700 l20 0 l0 -700 l-20 0 l0 347 l-299 0 l0 -347 l-20 0 l0 700 l20 0 l0 -334 l299 0 l0 334 Z" /><glyph glyph-name="I" unicode="i" d="M87 700 l20 0 l0 -700 l-20 0 l0 700 Z" /><glyph glyph-name="J" unicode="j" d="M-10 -67 l0 19 q57 0 84.5 34 q27.5 34 27.5 93 l0 621 l20 0 l0 -621 q0 -66 -33 -106 q-33 -40 -99 -40 Z" /><glyph glyph-name="K" unicode="k" d="M421 0 l-244 382 l-70 -92 l0 -290 l-20 0 l0 700 l20 0 l0 -379 l24 32 l264 347 l25 0 l-231 -301 l255 -399 l-23 0 Z" /><glyph glyph-name="L" unicode="l" d="M107 19 l260 0 l0 -19 l-280 0 l0 700 l20 0 l0 -681 Z" /><glyph glyph-name="M" unicode="m" d="M508 700 l21 0 l0 -697 l-20 0 l0 575 l0 74 q-5 -11 -14 -32.5 q-9 -21.5 -13 -32.5 l-164 -397 l-20 0 l-164 397 l-27 65 l0 -74 l0 -575 l-20 0 l0 697 l21 0 l168 -408 q6 -13 16.5 -39 q10.5 -26 15.5 -39 q6 13 16 39 q10 26 16 39 l168 408 Z" /><glyph glyph-name="N" unicode="n" d="M417 700 l20 0 l0 -700 l-20 0 l-277 586 l-33 70 l0 -78 l0 -578 l-20 0 l0 700 l20 0 l275 -582 l35 -74 l0 62 l0 594 Z" /><glyph glyph-name="O" unicode="o" d="M387 41 q-49 -52 -135 -52 q-86 0 -135 52 q-49 52 -49 151 l0 315 q0 100 49 152 q49 52 135 52 q86 0 135 -52 q49 -52 49 -152 l0 -315 q0 -99 -49 -151 ZM131.5 54.5 q43.5 -46.5 120.5 -46.5 q77 0 120.5 46.5 q43.5 46.5 43.5 137.5 l0 315 q0 92 -43.5 138.5 q-43.5 46.5 -120.5 46.5 q-77 0 -120.5 -46.5 q-43.5 -46.5 -43.5 -138.5 l0 -315 q0 -91 43.5 -137.5 Z" /><glyph glyph-name="P" unicode="p" d="M421 495 q1 -100 -50 -156 q-51 -56 -142 -56 l-122 0 l0 -283 l-20 0 l0 700 l142 0 q91 0 141 -54 q50 -54 51 -151 ZM401 495 q1 88 -44 137 q-45 49 -128 49 l-122 0 l0 -379 l122 0 q82 0 126.5 50.5 q44.5 50.5 45.5 142.5 Z" /><glyph glyph-name="Q" unicode="q" d="M439 -31 l-14 -13 l-59 66 q-45 -33 -114 -33 q-86 0 -135 52 q-49 52 -49 151 l0 315 q0 100 49 152 q49 52 135 52 q86 0 135 -52 q49 -52 49 -152 l0 -315 q0 -105 -56 -158 l59 -65 ZM252 8 q62 0 100 29 l-89 99 l14 13 l90 -100 q49 47 49 143 l0 315 q0 92 -43.5 138.5 q-43.5 46.5 -120.5 46.5 q-77 0 -120.5 -46.5 q-43.5 -46.5 -43.5 -138.5 l0 -315 q0 -91 43.5 -137.5 q43.5 -46.5 120.5 -46.5 Z" /><glyph glyph-name="R" unicode="r" d="M394 0 l-169 303 l-118 0 l0 -303 l-20 0 l0 700 l128 0 q193 0 193 -197 q0 -91 -43 -143.5 q-43 -52.5 -119 -56.5 l169 -303 l-21 0 ZM107 681 l0 -359 l135 0 q67 0 106.5 46.5 q39.5 46.5 39.5 134.5 q0 178 -173 178 l-108 0 Z" /><glyph glyph-name="S" unicode="s" d="M329.5 35 q-45.5 -46 -119.5 -46 q-74 0 -117 46 q-43 46 -49 121 l20 0 q8 -70 45.5 -109 q37.5 -39 101.5 -39 q66 0 105 40.5 q39 40.5 39 102.5 q0 53 -31.5 95.5 q-31.5 42.5 -76.5 73 q-45 30.5 -90 61 q-45 30.5 -76.5 74.5 q-31.5 44 -31.5 99 q0 69 45.5 113 q45.5 44 114.5 44 q68 0 111.5 -44.5 q43.5 -44.5 49.5 -121.5 l-20 0 q-8 71 -44 109 q-36 38 -96 38 q-61 0 -101 -38.5 q-40 -38.5 -40 -99.5 q0 -37 17 -69.5 q17 -32.5 44 -56 q27 -23.5 59.5 -46 q32.5 -22.5 65 -45.5 q32.5 -23 59.5 -48.5 q27 -25.5 44 -60.5 q17 -35 17 -77 q0 -70 -45.5 -116 Z" /><glyph glyph-name="T" unicode="t" d="M367 700 l0 -19 l-163 0 l0 -681 l-20 0 l0 681 l-158 0 l0 19 l341 0 Z" /><glyph glyph-name="U" unicode="u" d="M368.5 40.5 q-45.5 -50.5 -124.5 -50.5 q-79 0 -124.5 50.5 q-45.5 50.5 -45.5 143.5 l0 516 l20 0 l0 -516 q0 -85 40 -130 q40 -45 110 -45 q70 0 110 45 q40 45 40 130 l0 516 l20 0 l0 -516 q0 -93 -45.5 -143.5 Z" /><glyph glyph-name="V" unicode="v" d="M198 0 l-183 700 l22 0 l138 -538 q6 -23 17.5 -68.5 q11.5 -45.5 17.5 -67.5 l35 137 l138 537 l22 0 l-183 -700 l-24 0 Z" /><glyph glyph-name="W" unicode="w" d="M619 700 l22 0 l-150 -700 l-24 0 l-111 510 l-28 142 l-28 -142 l-111 -510 l-24 0 l-150 700 l22 0 l112 -538 q4 -22 13.5 -67 q9.5 -45 14.5 -67 q5 22 14.5 67 q9.5 45 13.5 67 l112 528 l22 0 l109 -514 l31 -148 q5 24 15.5 73 q10.5 49 15.5 74 l109 525 Z" /><glyph glyph-name="X" unicode="x" d="M387 0 l-22 0 l-160 338 l-161 -338 l-22 0 l172 362 l-164 338 l22 0 l153 -316 l152 316 l22 0 l-163 -338 l171 -362 Z" /><glyph glyph-name="Y" unicode="y" d="M190 0 l0 265 l-179 435 l21 0 l131 -318 q6 -15 18.5 -44.5 q12.5 -29.5 18.5 -44.5 l36 89 l131 318 l21 0 l-178 -435 l0 -265 l-20 0 Z" /><glyph glyph-name="Z" unicode="z" d="M47 19 l305 0 l0 -19 l-328 0 l0 17 l301 664 l-289 0 l0 19 l313 0 l0 -15 l-302 -666 Z" /><glyph glyph-name="bracketleft" unicode="[" d="M195 801 l-88 0 l0 -902 l88 0 l0 -19 l-108 0 l0 940 l108 0 l0 -19 Z" /><glyph glyph-name="backslash" unicode="\" d="M75 803 l315 -912 l-21 0 l-315 912 l21 0 Z" /><glyph glyph-name="bracketright" unicode="]" d="M62 -101 l88 0 l0 902 l-88 0 l0 19 l108 0 l0 -940 l-108 0 l0 19 Z" /><glyph glyph-name="asciicircum" unicode="^" d="M259 483 l-19 0 l-100 197 l-100 -197 l-19 0 l110 217 l18 0 l110 -217 Z" /><glyph glyph-name="underscore" unicode="_" d="M35 -7 l345 0 l0 -19 l-345 0 l0 19 Z" /><glyph glyph-name="a" unicode="a" d="M217 530 q67 0 103 -40 q36 -40 36 -113 l0 -377 l-19 0 l0 69 q-36 -79 -144 -79 q-64 0 -102 41.5 q-38 41.5 -38 114.5 q0 72 44.5 111 q44.5 39 126.5 39 l113 0 l0 81 q0 65 -31 100 q-31 35 -89 35 q-57 0 -92 -32.5 q-35 -32.5 -36 -80.5 l-19 0 q4 57 43 94 q39 37 104 37 ZM194 8 q143 0 143 150 l0 120 l-113 0 q-74 0 -113 -34.5 q-39 -34.5 -39 -97.5 q0 -64 33 -101 q33 -37 89 -37 Z" /><glyph glyph-name="b" unicode="b" d="M236 530 q61 0 101 -45.5 q40 -45.5 40 -114.5 l0 -220 q0 -69 -43 -114.5 q-43 -45.5 -107 -45.5 q-42 0 -78 21.5 q-36 21.5 -55 54.5 l0 -66 l-19 0 l0 722 l19 0 l0 -291 q16 47 53.5 73 q37.5 26 88.5 26 ZM358 150 l0 220 q0 63 -35.5 102.5 q-35.5 39.5 -91.5 39.5 q-59 0 -98 -44.5 q-39 -44.5 -39 -127.5 l0 -200 q0 -55 38.5 -93.5 q38.5 -38.5 93.5 -38.5 q56 0 94 40 q38 40 38 102 Z" /><glyph glyph-name="c" unicode="c" d="M212 -10 q-70 0 -110 44.5 q-40 44.5 -40 117.5 l0 216 q0 73 39.5 117.5 q39.5 44.5 107.5 44.5 q71 0 111 -45.5 q40 -45.5 40 -123.5 l-19 0 q0 70 -35 110.5 q-35 40.5 -97 40.5 q-59 0 -93.5 -39.5 q-34.5 -39.5 -34.5 -104.5 l0 -216 q0 -65 35 -104.5 q35 -39.5 96 -39.5 q62 0 97.5 41.5 q35.5 41.5 35.5 112.5 l19 0 q0 -80 -40.5 -126 q-40.5 -46 -111.5 -46 Z" /><glyph glyph-name="d" unicode="d" d="M345 722 l19 0 l0 -722 l-19 0 l0 66 q-19 -33 -55 -54.5 q-36 -21.5 -78 -21.5 q-64 0 -107 45.5 q-43 45.5 -43 114.5 l0 220 q0 69 40 114.5 q40 45.5 101 45.5 q51 0 88.5 -26 q37.5 -26 53.5 -73 l0 291 ZM213 8 q55 0 93.5 38.5 q38.5 38.5 38.5 93.5 l0 200 q0 83 -39 127.5 q-39 44.5 -98 44.5 q-56 0 -91.5 -39.5 q-35.5 -39.5 -35.5 -102.5 l0 -220 q0 -62 38 -102 q38 -40 94 -40 Z" /><glyph glyph-name="e" unicode="e" d="M352 152 l19 0 q-8 -75 -47.5 -118.5 q-39.5 -43.5 -111.5 -43.5 q-70 0 -110 44.5 q-40 44.5 -40 117.5 l0 216 q0 73 40 117.5 q40 44.5 110 44.5 q69 0 109.5 -44.5 q40.5 -44.5 40.5 -117.5 l0 -119 l-281 0 l0 -97 q0 -65 35 -104.5 q35 -39.5 96 -39.5 q63 0 97.5 38.5 q34.5 38.5 42.5 105.5 ZM212 512 q-61 0 -96 -39.5 q-35 -39.5 -35 -104.5 l0 -101 l262 0 l0 101 q0 64 -35.5 104 q-35.5 40 -95.5 40 Z" /><glyph glyph-name="f" unicode="f" d="M223 714 q-109 0 -109 -127 l0 -67 l114 0 l0 -19 l-114 0 l0 -501 l-19 0 l0 501 l-73 0 l0 19 l73 0 l0 67 q0 72 33 108.5 q33 36.5 95 36.5 l13 0 l0 -18 l-13 0 Z" /><glyph glyph-name="g" unicode="g" d="M344 520 l19 0 l0 -550 q0 -76 -36.5 -118 q-36.5 -42 -101.5 -42 q-71 0 -112 37.5 q-41 37.5 -46 102.5 l19 0 q6 -58 41 -90 q35 -32 98 -32 q57 0 88 36.5 q31 36.5 31 105.5 l0 122 q-16 -39 -51.5 -62 q-35.5 -23 -76.5 -23 q-65 0 -109.5 46 q-44.5 46 -44.5 117 l0 197 q0 71 43.5 117 q43.5 46 108.5 46 q43 0 77.5 -21.5 q34.5 -21.5 52.5 -59.5 l0 71 ZM216 25 q53 0 90.5 38.5 q37.5 38.5 37.5 93.5 l0 223 q0 55 -37 93.5 q-37 38.5 -90 38.5 q-58 0 -97 -40.5 q-39 -40.5 -39 -104.5 l0 -197 q0 -64 39 -104.5 q39 -40.5 96 -40.5 Z" /><glyph glyph-name="h" unicode="h" d="M243 530 q61 0 95 -48.5 q34 -48.5 34 -141.5 l0 -340 l-19 0 l0 340 q0 85 -29 128.5 q-29 43.5 -83 43.5 q-64 0 -105.5 -53.5 q-41.5 -53.5 -41.5 -138.5 l0 -320 l-19 0 l0 722 l19 0 l0 -301 q21 51 61 80 q40 29 88 29 Z" /><glyph glyph-name="i" unicode="i" d="M110 647 q0 -25 -25 -25 q-25 0 -25 25 q0 25 25 25 q25 0 25 -25 ZM75 0 l0 520 l19 0 l0 -520 l-19 0 Z" /><glyph glyph-name="j" unicode="j" d="M130 647 q0 -25 -25 -25 q-25 0 -25 25 q0 25 25 25 q25 0 25 -25 ZM-30 -188 l0 18 q63 2 94.5 37.5 q31.5 35.5 31.5 97.5 l0 555 l19 0 l0 -555 q0 -69 -37 -110 q-37 -41 -108 -43 Z" /><glyph glyph-name="k" unicode="k" d="M359 0 l-212 283 l-53 -57 l0 -226 l-19 0 l0 722 l19 0 l0 -469 l246 267 l25 0 l-205 -222 l222 -298 l-23 0 Z" /><glyph glyph-name="l" unicode="l" d="M76 0 l0 722 l19 0 l0 -722 l-19 0 Z" /><glyph glyph-name="m" unicode="m" d="M498 530 q60 0 92 -48.5 q32 -48.5 32 -141.5 l0 -340 l-19 0 l0 340 q0 172 -107 172 q-60 0 -99 -53.5 q-39 -53.5 -39 -138.5 l0 -320 l-19 0 l0 340 q0 172 -106 172 q-60 0 -99.5 -53.5 q-39.5 -53.5 -39.5 -138.5 l0 -320 l-19 0 l0 520 l19 0 l0 -97 q20 50 57.5 78.5 q37.5 28.5 83.5 28.5 q96 0 117 -121 q19 56 58 88.5 q39 32.5 88 32.5 Z" /><glyph glyph-name="n" unicode="n" d="M243 530 q61 0 94.5 -48.5 q33.5 -48.5 33.5 -141.5 l0 -340 l-19 0 l0 340 q0 84 -29 128 q-29 44 -82 44 q-64 0 -105.5 -53.5 q-41.5 -53.5 -41.5 -138.5 l0 -320 l-19 0 l0 520 l19 0 l0 -99 q21 51 61 80 q40 29 88 29 Z" /><glyph glyph-name="o" unicode="o" d="M327 34.5 q-41 -44.5 -112 -44.5 q-71 0 -112 44.5 q-41 44.5 -41 117.5 l0 216 q0 73 41 117.5 q41 44.5 112 44.5 q71 0 112 -44.5 q41 -44.5 41 -117.5 l0 -216 q0 -73 -41 -117.5 ZM117 47.5 q36 -39.5 98 -39.5 q62 0 98 39.5 q36 39.5 36 104.5 l0 216 q0 65 -36 104.5 q-36 39.5 -98 39.5 q-62 0 -98 -39.5 q-36 -39.5 -36 -104.5 l0 -216 q0 -65 36 -104.5 Z" /><glyph glyph-name="p" unicode="p" d="M236 530 q59 0 100 -45.5 q41 -45.5 41 -114.5 l0 -220 q0 -69 -42.5 -114.5 q-42.5 -45.5 -105.5 -45.5 q-43 0 -81 23.5 q-38 23.5 -54 61.5 l0 -255 l-19 0 l0 700 l19 0 l0 -92 q16 48 53 75 q37 27 89 27 ZM358 150 l0 220 q0 62 -36 102 q-36 40 -90 40 q-55 0 -96.5 -44 q-41.5 -44 -41.5 -118 l0 -210 q0 -55 38.5 -93.5 q38.5 -38.5 93.5 -38.5 q56 0 94 40 q38 40 38 102 Z" /><glyph glyph-name="q" unicode="q" d="M345 520 l19 0 l0 -700 l-19 0 l0 255 q-16 -38 -54 -61.5 q-38 -23.5 -81 -23.5 q-63 0 -105.5 45.5 q-42.5 45.5 -42.5 114.5 l0 220 q0 69 41 114.5 q41 45.5 100 45.5 q52 0 89 -27 q37 -27 53 -75 l0 92 ZM213 8 q55 0 93.5 38.5 q38.5 38.5 38.5 93.5 l0 210 q0 74 -41.5 118 q-41.5 44 -96.5 44 q-54 0 -90 -40 q-36 -40 -36 -102 l0 -220 q0 -62 38 -102 q38 -40 94 -40 Z" /><glyph glyph-name="r" unicode="r" d="M240 530 q36 0 54 -6 l0 -20 q-30 8 -58 8 q-61 0 -101.5 -54 q-40.5 -54 -40.5 -138 l0 -317 l-19 0 l0 517 l19 0 l0 -98 q21 51 59.5 79.5 q38.5 28.5 86.5 28.5 Z" /><glyph glyph-name="s" unicode="s" d="M197 -10 q-70 0 -110 37 q-40 37 -44 108 l19 0 q7 -127 135 -127 q51 0 87 29.5 q36 29.5 36 77.5 q0 44 -28 74.5 q-28 30.5 -68 49 q-40 18.5 -79.5 37.5 q-39.5 19 -67.5 51.5 q-28 32.5 -28 79.5 q0 54 39 88.5 q39 34.5 98 34.5 q63 0 101 -34.5 q38 -34.5 41 -94.5 l-19 0 q-3 54 -35 82.5 q-32 28.5 -88 28.5 q-51 0 -84.5 -29 q-33.5 -29 -33.5 -76 q0 -42 28 -71.5 q28 -29.5 68 -48 q40 -18.5 79.5 -38 q39.5 -19.5 67.5 -53 q28 -33.5 28 -81.5 q0 -54 -42 -89.5 q-42 -35.5 -100 -35.5 Z" /><glyph glyph-name="t" unicode="t" d="M226 16 l18 0 l0 -18 l-18 0 q-129 0 -129 128 l0 376 l-72 0 l0 18 l72 0 l0 123 l19 0 l0 -123 l122 0 l0 -18 l-122 0 l0 -376 q0 -110 110 -110 Z" /><glyph glyph-name="u" unicode="u" d="M345 520 l19 0 l0 -520 l-19 0 l0 99 q-21 -51 -61 -80 q-40 -29 -88 -29 q-61 0 -94.5 48.5 q-33.5 48.5 -33.5 141.5 l0 340 l19 0 l0 -340 q0 -84 29 -128 q29 -44 82 -44 q64 0 105.5 53.5 q41.5 53.5 41.5 138.5 l0 320 Z" /><glyph glyph-name="v" unicode="v" d="M323 520 l20 0 l-151 -520 l-20 0 l-151 520 l20 0 l101 -353 q6 -24 20 -70 q14 -46 20 -70 q7 24 20 70 q13 46 20 70 l101 353 Z" /><glyph glyph-name="w" unicode="w" d="M541 520 l20 0 l-130 -520 l-20 0 l-105 413 l-15 62 q-2 -10 -7 -31 q-5 -21 -8 -31 l-105 -413 l-20 0 l-130 520 l20 0 l97 -403 l23 -95 q4 16 11.5 47.5 q7.5 31.5 11.5 47.5 l97 393 l20 0 l97 -393 l23 -95 q4 16 11.5 47.5 q7.5 31.5 11.5 47.5 l97 403 Z" /><glyph glyph-name="x" unicode="x" d="M337 0 l-23 0 l-137 246 l-139 -246 l-22 0 l150 264 l-144 256 l22 0 l133 -239 l133 239 l21 0 l-142 -256 l148 -264 Z" /><glyph glyph-name="y" unicode="y" d="M328 520 l20 0 l-188 -607 q-31 -93 -90 -93 l-26 0 l0 18 l25 0 q46 0 74 81 l40 131 l-162 470 l21 0 l151 -438 l135 438 Z" /><glyph glyph-name="z" unicode="z" d="M45 18 l258 0 l0 -18 l-281 0 l0 17 l256 486 l-239 0 l0 18 l261 0 l0 -17 l-255 -486 Z" /><glyph glyph-name="braceleft" unicode="{" d="M152 484 q0 -40 -17.5 -76 q-17.5 -36 -50.5 -54 q33 -18 50.5 -54 q17.5 -36 17.5 -76 l0 -204 q0 -51 30.5 -86 q30.5 -35 77.5 -35 l0 -19 q-55 0 -91.5 40.5 q-36.5 40.5 -36.5 99.5 l0 204 q0 87 -70 119 l0 22 q70 32 70 119 l0 196 q0 59 36.5 99.5 q36.5 40.5 91.5 40.5 l0 -19 q-47 -2 -77.5 -36.5 q-30.5 -34.5 -30.5 -84.5 l0 -196 Z" /><glyph glyph-name="bar" unicode="|" d="M76 795 l20 0 l0 -872 l-20 0 l0 872 Z" /><glyph glyph-name="braceright" unicode="}" d="M190 476 q0 -87 70 -119 l0 -22 q-70 -32 -70 -119 l0 -196 q0 -59 -36.5 -99.5 q-36.5 -40.5 -91.5 -40.5 l0 19 q47 2 77.5 36.5 q30.5 34.5 30.5 84.5 l0 196 q0 40 17.5 76 q17.5 36 50.5 54 q-33 18 -50.5 54 q-17.5 36 -17.5 76 l0 204 q0 51 -30.5 86 q-30.5 35 -77.5 35 l0 19 q55 0 91.5 -40.5 q36.5 -40.5 36.5 -99.5 l0 -204 Z" /><glyph glyph-name="asciitilde" unicode="~" d="M357 329 l12 -12 q-29 -54 -75 -54 q-28 0 -81 27.5 q-53 27.5 -76 27.5 q-36 0 -67 -48 l-11 13 q32 52 78 52 q29 0 82 -27.5 q53 -27.5 76 -27.5 q34 0 62 49 Z" /><glyph glyph-name="uni0401" unicode="&#x401;" d="M197 834 q0 -24 -24 -24 q-24 0 -24 24 q0 24 24 24 q24 0 24 -24 ZM307 834 q0 -24 -24 -24 q-24 0 -24 24 q0 24 24 24 q24 0 24 -24 ZM390 681 l-283 0 l0 -315 l261 0 l0 -19 l-261 0 l0 -328 l283 0 l0 -19 l-303 0 l0 700 l303 0 l0 -19 Z" /><glyph glyph-name="uni0402" unicode="&#x402;" d="M350 530 q61 0 95 -48.5 q34 -48.5 34 -141.5 l0 -193 q0 -71 -37 -112.5 q-37 -41.5 -108 -43.5 l0 18 q63 2 94.5 38.5 q31.5 36.5 31.5 99.5 l0 193 q0 85 -29 128.5 q-29 43.5 -83 43.5 q-64 0 -105.5 -53.5 q-41.5 -53.5 -41.5 -138.5 l0 -320 l-20 0 l0 681 l-155 0 l0 19 l335 0 l0 -19 l-160 0 l0 -260 q21 51 61 80 q40 29 88 29 Z" /><glyph glyph-name="uni0403" unicode="&#x403;" d="M305 875 l-92 -103 l-20 0 l86 103 l26 0 ZM368 700 l0 -19 l-261 0 l0 -681 l-20 0 l0 700 l281 0 Z" /><glyph glyph-name="uni0404" unicode="&#x404;" d="M403 175 l20 0 q-12 -187 -184 -187 q-80 0 -125.5 52 q-45.5 52 -45.5 152 l0 315 q0 101 45.5 153 q45.5 52 125.5 52 q165 0 180 -187 l-20 0 q-15 168 -160 168 q-71 0 -111 -47 q-40 -47 -40 -139 l0 -137 l234 0 l0 -19 l-234 0 l0 -159 q0 -92 40 -138.5 q40 -46.5 111 -46.5 q152 0 164 168 Z" /><glyph glyph-name="uni0405" unicode="&#x405;" d="M329.5 35 q-45.5 -46 -119.5 -46 q-74 0 -117 46 q-43 46 -49 121 l20 0 q8 -70 45.5 -109 q37.5 -39 101.5 -39 q66 0 105 40.5 q39 40.5 39 102.5 q0 53 -31.5 95.5 q-31.5 42.5 -76.5 73 q-45 30.5 -90 61 q-45 30.5 -76.5 74.5 q-31.5 44 -31.5 99 q0 69 45.5 113 q45.5 44 114.5 44 q68 0 111.5 -44.5 q43.5 -44.5 49.5 -121.5 l-20 0 q-8 71 -44 109 q-36 38 -96 38 q-61 0 -101 -38.5 q-40 -38.5 -40 -99.5 q0 -37 17 -69.5 q17 -32.5 44 -56 q27 -23.5 59.5 -46 q32.5 -22.5 65 -45.5 q32.5 -23 59.5 -48.5 q27 -25.5 44 -60.5 q17 -35 17 -77 q0 -70 -45.5 -116 Z" /><glyph glyph-name="uni0406" unicode="&#x406;" d="M87 700 l20 0 l0 -700 l-20 0 l0 700 Z" /><glyph glyph-name="uni0407" unicode="&#x407;" d="M66 834 q0 -24 -24 -24 q-24 0 -24 24 q0 24 24 24 q24 0 24 -24 ZM176 834 q0 -24 -24 -24 q-24 0 -24 24 q0 24 24 24 q24 0 24 -24 ZM87 700 l20 0 l0 -700 l-20 0 l0 700 Z" /><glyph glyph-name="uni0408" unicode="&#x408;" d="M-10 -67 l0 19 q57 0 84.5 34 q27.5 34 27.5 93 l0 621 l20 0 l0 -621 q0 -66 -33 -106 q-33 -40 -99 -40 Z" /><glyph glyph-name="uni0409" unicode="&#x409;" d="M10 -7 l0 19 q58 0 78 132 q15 94 37 556 l257 0 l0 -304 l125 0 q92 0 140 -50.5 q48 -50.5 48 -146.5 q0 -97 -47.5 -148 q-47.5 -51 -140.5 -51 l-145 0 l0 681 l-218 0 q-21 -438 -37 -539 q-23 -149 -97 -149 ZM382 19 l125 0 q168 0 168 180 q0 178 -168 178 l-125 0 l0 -358 Z" /><glyph glyph-name="uni040A" unicode="&#x40a;" d="M551 378 q93 0 140.5 -48.5 q47.5 -48.5 47.5 -140.5 q0 -93 -47.5 -141 q-47.5 -48 -140.5 -48 l-145 0 l0 358 l-299 0 l0 -358 l-20 0 l0 700 l20 0 l0 -323 l299 0 l0 323 l20 0 l0 -322 l125 0 ZM551 19 q168 0 168 170 q0 170 -168 170 l-125 0 l0 -340 l125 0 Z" /><glyph glyph-name="uni040B" unicode="&#x40b;" d="M347 530 q62 0 96 -48.5 q34 -48.5 34 -141.5 l0 -340 l-19 0 l0 340 q0 85 -29 128.5 q-29 43.5 -84 43.5 q-62 0 -103 -53.5 q-41 -53.5 -41 -138.5 l0 -320 l-20 0 l0 681 l-155 0 l0 19 l335 0 l0 -19 l-160 0 l0 -259 q21 51 59.5 79.5 q38.5 28.5 86.5 28.5 Z" /><glyph glyph-name="uni040C" unicode="&#x40c;" d="M313 875 l-92 -103 l-20 0 l86 103 l26 0 ZM421 0 l-244 382 l-70 -92 l0 -290 l-20 0 l0 700 l20 0 l0 -379 l24 32 l264 347 l25 0 l-231 -301 l255 -399 l-23 0 Z" /><glyph glyph-name="uni040D" unicode="&#x40d;" d="M290 772 l-20 0 l-92 103 l26 0 l86 -103 ZM87 0 l0 700 l20 0 l0 -594 l0 -62 q6 12 17.5 37 q11.5 25 17.5 37 l275 582 l20 0 l0 -700 l-20 0 l0 578 l0 78 l-33 -70 l-277 -586 l-20 0 Z" /><glyph glyph-name="uni040E" unicode="&#x40e;" d="M271 799 q-27 -28 -70 -28 q-43 0 -70 28 q-27 28 -27 73 l19 0 q0 -39 21 -61 q21 -22 57 -22 q36 0 57 22 q21 22 21 61 l19 0 q0 -45 -27 -73 ZM352 700 l21 0 l-194 -602 q-5 -15 -12.5 -30.5 q-7.5 -15.5 -20 -33.5 q-12.5 -18 -31.5 -29.5 q-19 -11.5 -41 -11.5 l-24 0 l0 19 l21 0 q24 0 44.5 18.5 q20.5 18.5 30 36.5 q9.5 18 15.5 36 l42 132 l-189 465 l21 0 l178 -435 l139 435 Z" /><glyph glyph-name="uni040F" unicode="&#x40f;" d="M247 -115 l0 115 l-160 0 l0 700 l20 0 l0 -681 l298 0 l0 681 l20 0 l0 -700 l-159 0 l0 -115 l-19 0 Z" /><glyph glyph-name="uni0410" unicode="&#x410;" d="M394 0 l-54 203 l-250 0 l-54 -203 l-21 0 l188 700 l24 0 l188 -700 l-21 0 ZM95 222 l240 0 l-75 282 l-45 170 q-7 -28 -22 -84.5 q-15 -56.5 -23 -85.5 l-75 -282 Z" /><glyph glyph-name="uni0411" unicode="&#x411;" d="M241 402 q81 0 133.5 -52 q52.5 -52 52.5 -149 q0 -94 -53 -147.5 q-53 -53.5 -133 -53.5 l-154 0 l0 700 l305 0 l0 -19 l-285 0 l0 -279 l134 0 ZM241 19 q73 0 119.5 47.5 q46.5 47.5 46.5 134.5 q0 89 -46 135.5 q-46 46.5 -120 46.5 l-134 0 l0 -364 l134 0 Z" /><glyph glyph-name="uni0412" unicode="&#x412;" d="M288 364 q140 -26 140 -175 q0 -90 -52 -139.5 q-52 -49.5 -143 -49.5 l-146 0 l0 700 l140 0 q81 0 126.5 -46 q45.5 -46 45.5 -129 q0 -59 -26.5 -102.5 q-26.5 -43.5 -84.5 -58.5 ZM227 681 l-120 0 l0 -308 l128 0 q72 0 108 43 q36 43 36 109 q0 75 -40 115.5 q-40 40.5 -112 40.5 ZM233 19 q83 0 129 44 q46 44 46 126 q0 71 -44 118 q-44 47 -129 47 l-128 0 l0 -335 l126 0 Z" /><glyph glyph-name="uni0413" unicode="&#x413;" d="M368 700 l0 -19 l-261 0 l0 -681 l-20 0 l0 700 l281 0 Z" /><glyph glyph-name="uni0414" unicode="&#x414;" d="M410 18 l60 0 l0 -129 l-20 0 l0 110 l-418 0 l0 -110 l-20 0 l0 129 l49 0 q30 36 51 128.5 q21 92.5 24 192.5 l12 361 l262 0 l0 -682 ZM390 18 l0 663 l-222 0 l-12 -342 q-4 -97 -23 -186 q-19 -89 -48 -135 l305 0 Z" /><glyph glyph-name="uni0415" unicode="&#x415;" d="M390 681 l-283 0 l0 -315 l261 0 l0 -19 l-261 0 l0 -328 l283 0 l0 -19 l-303 0 l0 700 l303 0 l0 -19 Z" /><glyph glyph-name="uni0416" unicode="&#x416;" d="M660 0 l-235 381 l-64 -85 l0 -296 l-20 0 l0 296 l-64 85 l-235 -381 l-23 0 l245 398 l-226 302 l24 0 l202 -271 l77 -102 l0 373 l20 0 l0 -373 l279 373 l24 0 l-226 -302 l245 -398 l-23 0 Z" /><glyph glyph-name="uni0417" unicode="&#x417;" d="M278 361 q130 -29 130 -177 q0 -92 -48 -143.5 q-48 -51.5 -131 -51.5 q-81 0 -131 49 q-50 49 -56 138 l20 0 q7 -81 51.5 -124.5 q44.5 -43.5 115.5 -43.5 q74 0 116.5 46 q42.5 46 42.5 129 q0 83 -43.5 125.5 q-43.5 42.5 -124.5 42.5 l-67 0 l0 19 l77 0 q70 0 107 42 q37 42 37 118 q0 78 -38.5 120 q-38.5 42 -106.5 42 q-70 0 -111.5 -43.5 q-41.5 -43.5 -45.5 -123.5 l-20 0 q5 88 52 137 q47 49 125 49 q76 0 120.5 -47.5 q44.5 -47.5 44.5 -134.5 q0 -139 -116 -168 Z" /><glyph glyph-name="uni0418" unicode="&#x418;" d="M87 0 l0 700 l20 0 l0 -594 l0 -62 q6 12 17.5 37 q11.5 25 17.5 37 l275 582 l20 0 l0 -700 l-20 0 l0 578 l0 78 l-33 -70 l-277 -586 l-20 0 Z" /><glyph glyph-name="uni0419" unicode="&#x419;" d="M332 799 q-27 -28 -70 -28 q-43 0 -70 28 q-27 28 -27 73 l19 0 q0 -39 21 -61 q21 -22 57 -22 q36 0 57 22 q21 22 21 61 l19 0 q0 -45 -27 -73 ZM87 0 l0 700 l20 0 l0 -594 l0 -62 q6 12 17.5 37 q11.5 25 17.5 37 l275 582 l20 0 l0 -700 l-20 0 l0 578 l0 78 l-33 -70 l-277 -586 l-20 0 Z" /><glyph glyph-name="uni041A" unicode="&#x41a;" d="M421 0 l-244 382 l-70 -92 l0 -290 l-20 0 l0 700 l20 0 l0 -379 l24 32 l264 347 l25 0 l-231 -301 l255 -399 l-23 0 Z" /><glyph glyph-name="uni041B" unicode="&#x41b;" d="M129 700 l259 0 l0 -700 l-20 0 l0 681 l-220 0 q-21 -438 -37 -539 q-3 -22 -9 -43.5 q-6 -21.5 -17.5 -47.5 q-11.5 -26 -30.5 -42 q-19 -16 -44 -16 l0 19 q26 0 45 27 q19 27 26 52 q7 25 11 53 q15 94 37 556 Z" /><glyph glyph-name="uni041C" unicode="&#x41c;" d="M508 700 l21 0 l0 -697 l-20 0 l0 575 l0 74 q-5 -11 -14 -32.5 q-9 -21.5 -13 -32.5 l-164 -397 l-20 0 l-164 397 l-27 65 l0 -74 l0 -575 l-20 0 l0 697 l21 0 l168 -408 q6 -13 16.5 -39 q10.5 -26 15.5 -39 q6 13 16 39 q10 26 16 39 l168 408 Z" /><glyph glyph-name="uni041D" unicode="&#x41d;" d="M406 700 l20 0 l0 -700 l-20 0 l0 347 l-299 0 l0 -347 l-20 0 l0 700 l20 0 l0 -334 l299 0 l0 334 Z" /><glyph glyph-name="uni041E" unicode="&#x41e;" d="M387 41 q-49 -52 -135 -52 q-86 0 -135 52 q-49 52 -49 151 l0 315 q0 100 49 152 q49 52 135 52 q86 0 135 -52 q49 -52 49 -152 l0 -315 q0 -99 -49 -151 ZM131.5 54.5 q43.5 -46.5 120.5 -46.5 q77 0 120.5 46.5 q43.5 46.5 43.5 137.5 l0 315 q0 92 -43.5 138.5 q-43.5 46.5 -120.5 46.5 q-77 0 -120.5 -46.5 q-43.5 -46.5 -43.5 -138.5 l0 -315 q0 -91 43.5 -137.5 Z" /><glyph glyph-name="uni041F" unicode="&#x41f;" d="M426 700 l0 -700 l-20 0 l0 681 l-299 0 l0 -681 l-20 0 l0 700 l339 0 Z" /><glyph glyph-name="uni0420" unicode="&#x420;" d="M421 495 q1 -100 -50 -156 q-51 -56 -142 -56 l-122 0 l0 -283 l-20 0 l0 700 l142 0 q91 0 141 -54 q50 -54 51 -151 ZM401 495 q1 88 -44 137 q-45 49 -128 49 l-122 0 l0 -379 l122 0 q82 0 126.5 50.5 q44.5 50.5 45.5 142.5 Z" /><glyph glyph-name="uni0421" unicode="&#x421;" d="M239 -12 q-80 0 -125.5 52 q-45.5 52 -45.5 152 l0 315 q0 101 45.5 153 q45.5 52 125.5 52 q165 0 180 -187 l-20 0 q-15 168 -160 168 q-71 0 -111 -47 q-40 -47 -40 -139 l0 -315 q0 -92 40 -138.5 q40 -46.5 111 -46.5 q152 0 164 168 l20 0 q-12 -187 -184 -187 Z" /><glyph glyph-name="uni0422" unicode="&#x422;" d="M367 700 l0 -19 l-163 0 l0 -681 l-20 0 l0 681 l-158 0 l0 19 l341 0 Z" /><glyph glyph-name="uni0423" unicode="&#x423;" d="M352 700 l21 0 l-194 -602 q-5 -15 -12.5 -30.5 q-7.5 -15.5 -20 -33.5 q-12.5 -18 -31.5 -29.5 q-19 -11.5 -41 -11.5 l-24 0 l0 19 l21 0 q24 0 44.5 18.5 q20.5 18.5 30 36.5 q9.5 18 15.5 36 l42 132 l-189 465 l21 0 l178 -435 l139 435 Z" /><glyph glyph-name="uni0424" unicode="&#x424;" d="M311 -49 l0 84 l-60 0 q-92 0 -144.5 60.5 q-52.5 60.5 -52.5 166.5 l0 183 q0 104 52.5 163.5 q52.5 59.5 144.5 59.5 l60 0 l0 76 l20 0 l0 -76 l60 0 q92 0 144.5 -59.5 q52.5 -59.5 52.5 -163.5 l0 -183 q0 -106 -52.5 -166.5 q-52.5 -60.5 -144.5 -60.5 l-60 0 l0 -84 l-20 0 ZM251 54 l60 0 l0 595 l-60 0 q-83 0 -130 -54.5 q-47 -54.5 -47 -149.5 l0 -183 q0 -97 47 -152.5 q47 -55.5 130 -55.5 ZM331 54 l60 0 q83 0 130 55.5 q47 55.5 47 152.5 l0 183 q0 95 -47 149.5 q-47 54.5 -130 54.5 l-60 0 l0 -595 Z" /><glyph glyph-name="uni0425" unicode="&#x425;" d="M387 0 l-22 0 l-160 338 l-161 -338 l-22 0 l172 362 l-164 338 l22 0 l153 -316 l152 316 l22 0 l-163 -338 l171 -362 Z" /><glyph glyph-name="uni0426" unicode="&#x426;" d="M470 -115 l0 115 l-383 0 l0 700 l20 0 l0 -681 l298 0 l0 681 l20 0 l0 -681 l64 0 l0 -134 l-19 0 Z" /><glyph glyph-name="uni0427" unicode="&#x427;" d="M365 700 l20 0 l0 -697 l-20 0 l0 303 q-59 -38 -136 -38 q-77 0 -127.5 50 q-50.5 50 -50.5 138 l0 244 l20 0 l0 -244 q0 -81 45 -125 q45 -44 113 -44 q78 0 136 41 l0 372 Z" /><glyph glyph-name="uni0428" unicode="&#x428;" d="M87 0 l0 700 l20 0 l0 -681 l270 0 l0 681 l20 0 l0 -681 l270 0 l0 681 l20 0 l0 -700 l-600 0 Z" /><glyph glyph-name="uni0429" unicode="&#x429;" d="M687 19 l64 0 l0 -134 l-19 0 l0 115 l-645 0 l0 700 l20 0 l0 -681 l270 0 l0 681 l20 0 l0 -681 l270 0 l0 681 l20 0 l0 -681 Z" /><glyph glyph-name="uni042A" unicode="&#x42a;" d="M136 0 l0 681 l-112 0 l0 19 l132 0 l0 -300 l125 0 q95 0 144 -51 q49 -51 49 -148 q0 -98 -49 -149.5 q-49 -51.5 -144 -51.5 l-145 0 ZM156 19 l125 0 q173 0 173 182 q0 180 -173 180 l-125 0 l0 -362 Z" /><glyph glyph-name="uni042B" unicode="&#x42b;" d="M87 0 l0 700 l20 0 l0 -304 l125 0 q92 0 140 -50.5 q48 -50.5 48 -146.5 q0 -97 -47.5 -148 q-47.5 -51 -140.5 -51 l-145 0 ZM489 0 l0 700 l20 0 l0 -700 l-20 0 ZM107 19 l125 0 q168 0 168 180 q0 178 -168 178 l-125 0 l0 -358 Z" /><glyph glyph-name="uni042C" unicode="&#x42c;" d="M87 0 l0 700 l20 0 l0 -300 l125 0 q95 0 144 -51 q49 -51 49 -148 q0 -98 -49 -149.5 q-49 -51.5 -144 -51.5 l-145 0 ZM107 19 l125 0 q173 0 173 182 q0 180 -173 180 l-125 0 l0 -362 Z" /><glyph glyph-name="uni042D" unicode="&#x42d;" d="M226 712 q80 0 125.5 -52 q45.5 -52 45.5 -153 l0 -315 q0 -100 -45.5 -152 q-45.5 -52 -125.5 -52 q-172 0 -184 187 l20 0 q12 -168 164 -168 q71 0 111 46.5 q40 46.5 40 138.5 l0 159 l-234 0 l0 19 l234 0 l0 137 q0 92 -40 139 q-40 47 -111 47 q-145 0 -160 -168 l-20 0 q15 187 180 187 Z" /><glyph glyph-name="uni042E" unicode="&#x42e;" d="M297 659 q49 52 135 52 q86 0 135 -52 q49 -52 49 -152 l0 -315 q0 -99 -49 -151 q-49 -52 -135 -52 q-86 0 -135 52 q-49 52 -49 151 l0 155 l-141 0 l0 -347 l-20 0 l0 700 l20 0 l0 -334 l141 0 l0 141 q0 100 49 152 ZM596 192 l0 315 q0 92 -43.5 138.5 q-43.5 46.5 -120.5 46.5 q-77 0 -120.5 -46.5 q-43.5 -46.5 -43.5 -138.5 l0 -315 q0 -91 43.5 -137.5 q43.5 -46.5 120.5 -46.5 q77 0 120.5 46.5 q43.5 46.5 43.5 137.5 Z" /><glyph glyph-name="uni042F" unicode="&#x42f;" d="M39 0 l189 294 q-78 5 -125 57.5 q-47 52.5 -47 145.5 q0 97 52 150 q52 53 136 53 l134 0 l0 -700 l-20 0 l0 294 l-106 0 l-189 -294 l-24 0 ZM244 313 l114 0 l0 368 l-114 0 q-78 0 -123 -46.5 q-45 -46.5 -45 -137.5 q0 -91 45 -137.5 q45 -46.5 123 -46.5 Z" /><glyph glyph-name="uni0430" unicode="&#x430;" d="M217 530 q67 0 103 -40 q36 -40 36 -113 l0 -377 l-19 0 l0 69 q-36 -79 -144 -79 q-64 0 -102 41.5 q-38 41.5 -38 114.5 q0 72 44.5 111 q44.5 39 126.5 39 l113 0 l0 81 q0 65 -31 100 q-31 35 -89 35 q-57 0 -92 -32.5 q-35 -32.5 -36 -80.5 l-19 0 q4 57 43 94 q39 37 104 37 ZM194 8 q143 0 143 150 l0 120 l-113 0 q-74 0 -113 -34.5 q-39 -34.5 -39 -97.5 q0 -64 33 -101 q33 -37 89 -37 Z" /><glyph glyph-name="uni0431" unicode="&#x431;" d="M242 500 q67 0 103 -47 q36 -47 36 -134 l0 -167 q0 -73 -41 -117.5 q-41 -44.5 -112 -44.5 q-71 0 -112 44.5 q-41 44.5 -41 117.5 l0 319 q0 138 151 185 q44 15 68.5 31.5 q24.5 16.5 38.5 47.5 l15 -10 q-24 -59 -116 -88 q-138 -42 -138 -166 l0 -73 q19 50 58.5 76 q39.5 26 89.5 26 ZM362 152 l0 167 q0 78 -31.5 120.5 q-31.5 42.5 -90.5 42.5 q-63 0 -104.5 -46 q-41.5 -46 -41.5 -128 l0 -156 q0 -65 36 -104.5 q36 -39.5 98 -39.5 q62 0 98 39.5 q36 39.5 36 104.5 Z" /><glyph glyph-name="uni0432" unicode="&#x432;" d="M275 279 q48 -15 76 -49.5 q28 -34.5 28 -85.5 q0 -69 -42 -106.5 q-42 -37.5 -119 -37.5 l-143 0 l0 520 l138 0 q65 0 102.5 -34.5 q37.5 -34.5 37.5 -92.5 q0 -78 -78 -114 ZM95 501 l0 -215 l130 0 q41 0 74.5 32 q33.5 32 33.5 75 q0 49 -32 78.5 q-32 29.5 -88 29.5 l-118 0 ZM218 19 q68 0 104.5 32 q36.5 32 36.5 93 q0 55 -37.5 89 q-37.5 34 -96.5 34 l-130 0 l0 -248 l123 0 Z" /><glyph glyph-name="uni0433" unicode="&#x433;" d="M306 520 l0 -18 l-212 0 l0 -502 l-19 0 l0 520 l231 0 Z" /><glyph glyph-name="uni0434" unicode="&#x434;" d="M0 -115 l0 134 l30 0 q33 24 49 76 q16 52 22 148 q7 114 11 277 l240 0 l0 -501 l55 0 l0 -134 l-18 0 l0 115 l-371 0 l0 -115 l-18 0 ZM59 19 l273 0 l0 482 l-200 0 q-4 -150 -11 -258 q-6 -90 -20 -142 q-14 -52 -42 -82 Z" /><glyph glyph-name="uni0435" unicode="&#x435;" d="M352 152 l19 0 q-8 -75 -47.5 -118.5 q-39.5 -43.5 -111.5 -43.5 q-70 0 -110 44.5 q-40 44.5 -40 117.5 l0 216 q0 73 40 117.5 q40 44.5 110 44.5 q69 0 109.5 -44.5 q40.5 -44.5 40.5 -117.5 l0 -119 l-281 0 l0 -97 q0 -65 35 -104.5 q35 -39.5 96 -39.5 q63 0 97.5 38.5 q34.5 38.5 42.5 105.5 ZM212 512 q-61 0 -96 -39.5 q-35 -39.5 -35 -104.5 l0 -101 l262 0 l0 101 q0 64 -35.5 104 q-35.5 40 -95.5 40 Z" /><glyph glyph-name="uni0436" unicode="&#x436;" d="M548 0 l-185 279 l-61 -77 l0 -202 l-19 0 l0 202 l-61 77 l-185 -279 l-22 0 l195 294 l-177 226 l22 0 l127 -162 l101 -128 l0 290 l19 0 l0 -290 l101 129 l127 161 l22 0 l-177 -226 l195 -294 l-22 0 Z" /><glyph glyph-name="uni0437" unicode="&#x437;" d="M224 275 q111 -22 111 -133 q0 -64 -44 -108.5 q-44 -44.5 -111 -44.5 q-64 0 -106 42.5 q-42 42.5 -44 107.5 l19 0 q2 -58 38.5 -95 q36.5 -37 92.5 -37 q59 0 97.5 39.5 q38.5 39.5 38.5 95.5 q0 52 -37 87.5 q-37 35.5 -105 35.5 l-73 0 l0 18 l73 0 q61 0 91.5 34 q30.5 34 30.5 80 q0 49 -32 82 q-32 33 -86 33 q-56 0 -85.5 -34 q-29.5 -34 -31.5 -92 l-19 0 q2 65 37.5 104.5 q35.5 39.5 98.5 39.5 q62 0 99.5 -38.5 q37.5 -38.5 37.5 -95.5 q0 -46 -25.5 -79 q-25.5 -33 -65.5 -42 Z" /><glyph glyph-name="uni0438" unicode="&#x438;" d="M75 0 l0 520 l19 0 l0 -394 q0 -70 -1 -90 l1 0 q12 26 43 85 l211 400 l20 0 l0 -521 l-19 0 l0 374 q0 53 2 113 l-1 0 q-35 -70 -49 -97 l-209 -390 l-17 0 Z" /><glyph glyph-name="uni0439" unicode="&#x439;" d="M292 631 q-27 -28 -70 -28 q-43 0 -70 28 q-27 28 -27 73 l19 0 q0 -39 21 -61 q21 -22 57 -22 q36 0 57 22 q21 22 21 61 l19 0 q0 -45 -27 -73 ZM75 0 l0 520 l19 0 l0 -394 q0 -70 -1 -90 l1 0 q12 26 43 85 l211 400 l20 0 l0 -521 l-19 0 l0 374 q0 53 2 113 l-1 0 q-35 -70 -49 -97 l-209 -390 l-17 0 Z" /><glyph glyph-name="uni043A" unicode="&#x43a;" d="M379 0 l-23 0 l-196 283 l-6 -8 l-60 -74 l0 -201 l-19 0 l0 520 l19 0 l0 -289 q11 13 36.5 44 q25.5 31 39.5 48 l163 197 l24 0 l-184 -222 l206 -298 Z" /><glyph glyph-name="uni043B" unicode="&#x43b;" d="M16 -9 l0 18 q58 0 74 133 q14 111 18 378 l239 0 l0 -520 l-19 0 l0 501 l-201 0 q-6 -271 -18 -363 q-20 -147 -93 -147 Z" /><glyph glyph-name="uni043C" unicode="&#x43c;" d="M433 520 l22 0 l0 -520 l-19 0 l0 386 l0 98 q-7 -16 -22 -47.5 q-15 -31.5 -23 -46.5 l-115 -240 l-22 0 l-115 240 l-45 94 l0 -98 l0 -386 l-19 0 l0 520 l22 0 l153 -318 l15 -31 q3 5 8 15.5 q5 10.5 7 15.5 l153 318 Z" /><glyph glyph-name="uni043D" unicode="&#x43d;" d="M338 520 l19 0 l0 -520 l-19 0 l0 263 l-244 0 l0 -263 l-19 0 l0 520 l19 0 l0 -239 l244 0 l0 239 Z" /><glyph glyph-name="uni043E" unicode="&#x43e;" d="M327 34.5 q-41 -44.5 -112 -44.5 q-71 0 -112 44.5 q-41 44.5 -41 117.5 l0 216 q0 73 41 117.5 q41 44.5 112 44.5 q71 0 112 -44.5 q41 -44.5 41 -117.5 l0 -216 q0 -73 -41 -117.5 ZM117 47.5 q36 -39.5 98 -39.5 q62 0 98 39.5 q36 39.5 36 104.5 l0 216 q0 65 -36 104.5 q-36 39.5 -98 39.5 q-62 0 -98 -39.5 q-36 -39.5 -36 -104.5 l0 -216 q0 -65 36 -104.5 Z" /><glyph glyph-name="uni043F" unicode="&#x43f;" d="M357 520 l0 -520 l-19 0 l0 502 l-244 0 l0 -502 l-19 0 l0 520 l282 0 Z" /><glyph glyph-name="uni0440" unicode="&#x440;" d="M236 530 q59 0 100 -45.5 q41 -45.5 41 -114.5 l0 -220 q0 -69 -42.5 -114.5 q-42.5 -45.5 -105.5 -45.5 q-43 0 -81 23.5 q-38 23.5 -54 61.5 l0 -255 l-19 0 l0 700 l19 0 l0 -92 q16 48 53 75 q37 27 89 27 ZM358 150 l0 220 q0 62 -36 102 q-36 40 -90 40 q-55 0 -96.5 -44 q-41.5 -44 -41.5 -118 l0 -210 q0 -55 38.5 -93.5 q38.5 -38.5 93.5 -38.5 q56 0 94 40 q38 40 38 102 Z" /><glyph glyph-name="uni0441" unicode="&#x441;" d="M212 -10 q-70 0 -110 44.5 q-40 44.5 -40 117.5 l0 216 q0 73 39.5 117.5 q39.5 44.5 107.5 44.5 q71 0 111 -45.5 q40 -45.5 40 -123.5 l-19 0 q0 70 -35 110.5 q-35 40.5 -97 40.5 q-59 0 -93.5 -39.5 q-34.5 -39.5 -34.5 -104.5 l0 -216 q0 -65 35 -104.5 q35 -39.5 96 -39.5 q62 0 97.5 41.5 q35.5 41.5 35.5 112.5 l19 0 q0 -80 -40.5 -126 q-40.5 -46 -111.5 -46 Z" /><glyph glyph-name="uni0442" unicode="&#x442;" d="M308 520 l0 -18 l-134 0 l0 -502 l-19 0 l0 502 l-133 0 l0 18 l286 0 Z" /><glyph glyph-name="uni0443" unicode="&#x443;" d="M328 520 l20 0 l-188 -607 q-31 -93 -90 -93 l-26 0 l0 18 l25 0 q46 0 74 81 l40 131 l-162 470 l21 0 l151 -438 l135 438 Z" /><glyph glyph-name="uni0444" unicode="&#x444;" d="M366 525 q83 0 128 -48.5 q45 -48.5 45 -136.5 l0 -160 q0 -88 -45 -136.5 q-45 -48.5 -128 -48.5 l-56 0 l0 -175 l-19 0 l0 175 l-56 0 q-83 0 -128 48.5 q-45 48.5 -45 136.5 l0 160 q0 88 45 136.5 q45 48.5 128 48.5 l56 0 l0 175 l19 0 l0 -175 l56 0 ZM235 13 l56 0 l0 494 l-56 0 q-75 0 -114.5 -43.5 q-39.5 -43.5 -39.5 -123.5 l0 -160 q0 -80 39.5 -123.5 q39.5 -43.5 114.5 -43.5 ZM520 180 l0 160 q0 80 -39.5 123.5 q-39.5 43.5 -114.5 43.5 l-56 0 l0 -494 l56 0 q75 0 114.5 43.5 q39.5 43.5 39.5 123.5 Z" /><glyph glyph-name="uni0445" unicode="&#x445;" d="M337 0 l-23 0 l-137 246 l-139 -246 l-22 0 l150 264 l-144 256 l22 0 l133 -239 l133 239 l21 0 l-142 -256 l148 -264 Z" /><glyph glyph-name="uni0446" unicode="&#x446;" d="M391 -115 l0 115 l-316 0 l0 520 l19 0 l0 -502 l242 0 l0 502 l19 0 l0 -502 l55 0 l0 -133 l-19 0 Z" /><glyph glyph-name="uni0447" unicode="&#x447;" d="M308 520 l19 0 l0 -520 l-19 0 l0 224 q-56 -33 -120 -33 q-72 0 -111 43.5 q-39 43.5 -39 113.5 l0 172 l19 0 l0 -172 q0 -61 35.5 -100 q35.5 -39 97.5 -39 q68 0 118 39 l0 272 Z" /><glyph glyph-name="uni0448" unicode="&#x448;" d="M568 520 l19 0 l0 -520 l-519 0 l0 520 l19 0 l0 -502 l231 0 l0 502 l19 0 l0 -502 l231 0 l0 502 Z" /><glyph glyph-name="uni0449" unicode="&#x449;" d="M592 18 l55 0 l0 -133 l-17 0 l0 115 l-555 0 l0 520 l19 0 l0 -502 l230 0 l0 502 l19 0 l0 -502 l230 0 l0 502 l19 0 l0 -502 Z" /><glyph glyph-name="uni044A" unicode="&#x44a;" d="M255 321 q70 0 112.5 -45.5 q42.5 -45.5 42.5 -115.5 q0 -69 -42.5 -114.5 q-42.5 -45.5 -112.5 -45.5 l-131 0 l0 502 l-102 0 l0 18 l121 0 l0 -199 l112 0 ZM255 18 q63 0 99.5 40 q36.5 40 36.5 102 q0 62 -36.5 102.5 q-36.5 40.5 -99.5 40.5 l-112 0 l0 -285 l112 0 Z" /><glyph glyph-name="uni044B" unicode="&#x44b;" d="M206 316 q70 0 112.5 -45 q42.5 -45 42.5 -113 q0 -68 -42.5 -113 q-42.5 -45 -112.5 -45 l-131 0 l0 520 l19 0 l0 -204 l112 0 ZM441 520 l19 0 l0 -520 l-19 0 l0 520 ZM206 18 q63 0 99.5 39.5 q36.5 39.5 36.5 100.5 q0 61 -36.5 100.5 q-36.5 39.5 -99.5 39.5 l-112 0 l0 -280 l112 0 Z" /><glyph glyph-name="uni044C" unicode="&#x44c;" d="M206 321 q70 0 112.5 -45.5 q42.5 -45.5 42.5 -115.5 q0 -69 -42.5 -114.5 q-42.5 -45.5 -112.5 -45.5 l-131 0 l0 520 l19 0 l0 -199 l112 0 ZM206 18 q63 0 99.5 40 q36.5 40 36.5 102 q0 62 -36.5 102.5 q-36.5 40.5 -99.5 40.5 l-112 0 l0 -285 l112 0 Z" /><glyph glyph-name="uni044D" unicode="&#x44d;" d="M207 530 q68 0 107.5 -44.5 q39.5 -44.5 39.5 -117.5 l0 -216 q0 -73 -40 -117.5 q-40 -44.5 -110 -44.5 q-70 0 -110 46 q-40 46 -42 126 l19 0 q2 -72 36.5 -113 q34.5 -41 96.5 -41 q61 0 96 39.5 q35 39.5 35 104.5 l0 105 l-215 0 l0 18 l215 0 l0 93 q0 65 -34.5 104.5 q-34.5 39.5 -93.5 39.5 q-61 0 -95 -40.5 q-34 -40.5 -36 -110.5 l-19 0 q2 78 41.5 123.5 q39.5 45.5 108.5 45.5 Z" /><glyph glyph-name="uni044E" unicode="&#x44e;" d="M258 485.5 q41 44.5 112 44.5 q71 0 112 -44.5 q41 -44.5 41 -117.5 l0 -216 q0 -73 -41 -117.5 q-41 -44.5 -112 -44.5 q-71 0 -112 44.5 q-41 44.5 -41 117.5 l0 111 l-123 0 l0 -263 l-19 0 l0 520 l19 0 l0 -239 l123 0 l0 87 q0 73 41 117.5 ZM504 152 l0 216 q0 65 -36 104.5 q-36 39.5 -98 39.5 q-62 0 -98 -39.5 q-36 -39.5 -36 -104.5 l0 -216 q0 -65 36 -104.5 q36 -39.5 98 -39.5 q62 0 98 39.5 q36 39.5 36 104.5 Z" /><glyph glyph-name="uni044F" unicode="&#x44f;" d="M192 520 l126 0 l0 -520 l-19 0 l0 214 l-118 0 l-136 -214 l-22 0 l138 217 q-54 6 -88 49 q-34 43 -34 103 q0 65 42 108 q42 43 111 43 ZM299 232 l0 270 l-107 0 q-62 0 -98 -37.5 q-36 -37.5 -36 -95.5 q0 -58 34.5 -97.5 q34.5 -39.5 89.5 -39.5 l117 0 Z" /><glyph glyph-name="uni0451" unicode="&#x451;" d="M188 647 q0 -24 -24 -24 q-24 0 -24 24 q0 24 24 24 q24 0 24 -24 ZM288 647 q0 -24 -24 -24 q-24 0 -24 24 q0 24 24 24 q24 0 24 -24 ZM352 152 l19 0 q-8 -75 -47.5 -118.5 q-39.5 -43.5 -111.5 -43.5 q-70 0 -110 44.5 q-40 44.5 -40 117.5 l0 216 q0 73 40 117.5 q40 44.5 110 44.5 q69 0 109.5 -44.5 q40.5 -44.5 40.5 -117.5 l0 -119 l-281 0 l0 -97 q0 -65 35 -104.5 q35 -39.5 96 -39.5 q63 0 97.5 38.5 q34.5 38.5 42.5 105.5 ZM212 512 q-61 0 -96 -39.5 q-35 -39.5 -35 -104.5 l0 -101 l262 0 l0 101 q0 64 -35.5 104 q-35.5 40 -95.5 40 Z" /><glyph glyph-name="uni0452" unicode="&#x452;" d="M262 530 q61 0 95 -48.5 q34 -48.5 34 -141.5 l0 -357 q0 -166 -145 -171 l0 18 q126 4 126 153 l0 357 q0 85 -29 128.5 q-29 43.5 -83 43.5 q-64 0 -105.5 -53.5 q-41.5 -53.5 -41.5 -138.5 l0 -320 l-19 0 l0 618 l-90 0 l0 18 l90 0 l0 86 l19 0 l0 -86 l132 0 l0 -18 l-132 0 l0 -197 q21 51 61 80 q40 29 88 29 Z" /><glyph glyph-name="uni0453" unicode="&#x453;" d="M233 704 l-81 -103 l-19 0 l76 103 l24 0 ZM306 520 l0 -18 l-212 0 l0 -502 l-19 0 l0 520 l231 0 Z" /><glyph glyph-name="uni0454" unicode="&#x454;" d="M345 162 l19 0 q-2 -80 -42 -126 q-40 -46 -110 -46 q-70 0 -110 44.5 q-40 44.5 -40 117.5 l0 216 q0 73 39.5 117.5 q39.5 44.5 107.5 44.5 q69 0 108.5 -45.5 q39.5 -45.5 41.5 -123.5 l-19 0 q-2 70 -36 110.5 q-34 40.5 -95 40.5 q-59 0 -93.5 -39.5 q-34.5 -39.5 -34.5 -104.5 l0 -93 l215 0 l0 -18 l-215 0 l0 -105 q0 -65 35 -104.5 q35 -39.5 96 -39.5 q62 0 96.5 41 q34.5 41 36.5 113 Z" /><glyph glyph-name="uni0455" unicode="&#x455;" d="M197 -10 q-70 0 -110 37 q-40 37 -44 108 l19 0 q7 -127 135 -127 q51 0 87 29.5 q36 29.5 36 77.5 q0 44 -28 74.5 q-28 30.5 -68 49 q-40 18.5 -79.5 37.5 q-39.5 19 -67.5 51.5 q-28 32.5 -28 79.5 q0 54 39 88.5 q39 34.5 98 34.5 q63 0 101 -34.5 q38 -34.5 41 -94.5 l-19 0 q-3 54 -35 82.5 q-32 28.5 -88 28.5 q-51 0 -84.5 -29 q-33.5 -29 -33.5 -76 q0 -42 28 -71.5 q28 -29.5 68 -48 q40 -18.5 79.5 -38 q39.5 -19.5 67.5 -53 q28 -33.5 28 -81.5 q0 -54 -42 -89.5 q-42 -35.5 -100 -35.5 Z" /><glyph glyph-name="uni0456" unicode="&#x456;" d="M110 647 q0 -25 -25 -25 q-25 0 -25 25 q0 25 25 25 q25 0 25 -25 ZM75 0 l0 520 l19 0 l0 -520 l-19 0 Z" /><glyph glyph-name="uni0457" unicode="&#x457;" d="M74 647 q0 -24 -24 -24 q-24 0 -24 24 q0 24 24 24 q24 0 24 -24 ZM174 647 q0 -24 -24 -24 q-24 0 -24 24 q0 24 24 24 q24 0 24 -24 ZM90 0 l0 520 l19 0 l0 -520 l-19 0 Z" /><glyph glyph-name="uni0458" unicode="&#x458;" d="M130 647 q0 -25 -25 -25 q-25 0 -25 25 q0 25 25 25 q25 0 25 -25 ZM-30 -188 l0 18 q63 2 94.5 37.5 q31.5 35.5 31.5 97.5 l0 555 l19 0 l0 -555 q0 -69 -37 -110 q-37 -41 -108 -43 Z" /><glyph glyph-name="uni0459" unicode="&#x459;" d="M16 -9 l0 18 q58 0 74 133 q14 111 18 378 l239 0 l0 -204 l112 0 q70 0 112.5 -45 q42.5 -45 42.5 -113 q0 -68 -42.5 -113 q-42.5 -45 -112.5 -45 l-131 0 l0 501 l-201 0 q-6 -271 -18 -363 q-20 -147 -93 -147 ZM347 18 l112 0 q63 0 99.5 39.5 q36.5 39.5 36.5 100.5 q0 61 -36.5 100.5 q-36.5 39.5 -99.5 39.5 l-112 0 l0 -280 Z" /><glyph glyph-name="uni045A" unicode="&#x45a;" d="M468 299 q70 0 113 -42.5 q43 -42.5 43 -107.5 q0 -65 -42.5 -107 q-42.5 -42 -113.5 -42 l-130 0 l0 281 l-244 0 l0 -281 l-19 0 l0 520 l19 0 l0 -221 l244 0 l0 221 l19 0 l0 -221 l111 0 ZM468 18 q64 0 100.5 37 q36.5 37 36.5 94 q0 57 -37 94.5 q-37 37.5 -100 37.5 l-111 0 l0 -263 l111 0 Z" /><glyph glyph-name="uni045B" unicode="&#x45b;" d="M252 530 q61 0 95 -48.5 q34 -48.5 34 -141.5 l0 -340 l-19 0 l0 340 q0 85 -29 128.5 q-29 43.5 -83 43.5 q-64 0 -105.5 -53.5 q-41.5 -53.5 -41.5 -138.5 l0 -320 l-19 0 l0 619 l-62 0 l0 19 l62 0 l0 84 l19 0 l0 -84 l109 0 l0 -19 l-109 0 l0 -198 q21 51 61 80 q40 29 88 29 Z" /><glyph glyph-name="uni045C" unicode="&#x45c;" d="M257 704 l-81 -103 l-19 0 l76 103 l24 0 ZM379 0 l-23 0 l-196 283 l-6 -8 l-60 -74 l0 -201 l-19 0 l0 520 l19 0 l0 -289 q11 13 36.5 44 q25.5 31 39.5 48 l163 197 l24 0 l-184 -222 l206 -298 Z" /><glyph glyph-name="uni045D" unicode="&#x45d;" d="M159 704 l24 0 l76 -103 l-19 0 l-81 103 ZM75 0 l0 520 l19 0 l0 -394 q0 -70 -1 -90 l1 0 q12 26 43 85 l211 400 l20 0 l0 -521 l-19 0 l0 374 q0 53 2 113 l-1 0 q-35 -70 -49 -97 l-209 -390 l-17 0 Z" /><glyph glyph-name="uni045E" unicode="&#x45e;" d="M255 631 q-27 -28 -70 -28 q-43 0 -70 28 q-27 28 -27 73 l19 0 q0 -39 21 -61 q21 -22 57 -22 q36 0 57 22 q21 22 21 61 l19 0 q0 -45 -27 -73 ZM328 520 l20 0 l-188 -607 q-31 -93 -90 -93 l-26 0 l0 18 l25 0 q46 0 74 81 l40 131 l-162 470 l21 0 l151 -438 l135 438 Z" /><glyph glyph-name="uni045F" unicode="&#x45f;" d="M355 520 l0 -520 l-130 0 l0 -115 l-19 0 l0 115 l-131 0 l0 520 l19 0 l0 -502 l242 0 l0 502 l19 0 Z" /><glyph glyph-name="uni0490" unicode="&#x490;" d="M335 788 l19 0 l0 -107 l-247 0 l0 -681 l-20 0 l0 700 l248 0 l0 88 Z" /><glyph glyph-name="uni0491" unicode="&#x491;" d="M287 615 l19 0 l0 -113 l-212 0 l0 -502 l-19 0 l0 520 l212 0 l0 95 Z" /></font>
</defs>
</svg>
